<svg width="376" height="379" viewBox="0 0 376 379" fill="none" xmlns="http://www.w3.org/2000/svg">
<path fill-rule="evenodd" clip-rule="evenodd" d="M26.4607 264.976C34.7681 222.195 118.829 246.566 173.938 233.341C229.048 220.115 294.247 158.519 337.397 188.692C380.546 218.864 334.636 291.8 235.668 308.259C136.701 324.718 18.1533 307.757 26.4607 264.976Z" fill="#F8F8F8"/>
<g opacity="0.5">
<path fill-rule="evenodd" clip-rule="evenodd" d="M48.4169 65.1645C47.6155 65.9646 47.9268 68.8081 47.91 69.8604C47.8842 71.4986 47.9862 73.1222 48.1231 74.7545C48.2149 75.8474 48.7322 86.2773 50.1718 85.4762C50.9833 85.0249 50.4745 82.0078 50.4731 81.0535C50.4698 78.9319 50.3816 76.8154 50.2401 74.6985C50.1086 72.7332 50.0261 70.7909 50.1018 68.8218C50.1202 68.3412 50.5699 63.0076 48.4169 65.1645Z" fill="#89C5CC"/>
<path fill-rule="evenodd" clip-rule="evenodd" d="M83.3159 63.8787C76.4313 63.9335 69.5496 64.2731 62.6683 64.4812C59.357 64.5813 56.0479 64.7086 52.7402 64.8921C51.6131 64.9547 49.1957 64.5938 48.2567 65.1944C46.1721 66.5277 49.534 66.8394 50.4302 66.8068C64.0482 66.313 77.671 65.6626 91.3006 65.6319C97.9865 65.6171 104.669 65.8074 111.356 65.7647C113.912 65.7484 116.742 64.6472 117.388 67.6223C118.116 70.9795 117.279 74.7173 117.051 78.0908C116.899 80.3428 116.953 82.548 117.055 84.7981C117.12 86.2396 116.95 87.8639 117.205 89.2785C117.45 90.6406 118.43 91.4575 119.327 89.9317C119.864 89.0199 119.597 86.7686 119.632 85.7123C119.68 84.2897 119.635 82.8675 119.635 81.4447C119.635 77.9718 120.125 74.5126 120.06 71.0404C120.019 68.8014 119.9 64.7423 117.076 64.2044C113.966 63.6119 110.144 64.2077 106.961 64.1713C99.076 64.0813 91.2038 63.8171 83.3159 63.8787Z" fill="#89C5CC"/>
<path fill-rule="evenodd" clip-rule="evenodd" d="M64.346 85.6008C61.7501 85.6008 59.1539 85.6164 56.5581 85.6594C54.3319 85.6962 50.8316 85.2321 48.7596 86.0287C47.3411 86.574 46.9643 88.1576 48.7596 88.5794C50.7176 89.0397 53.6686 88.2873 55.7173 88.2512C65.99 88.0698 76.3615 87.8334 86.6198 88.4831C96.2321 89.0916 106.03 89.6818 115.656 89.0394C116.466 88.9854 120.597 88.821 118.712 87.2725C117.612 86.3688 113.155 86.9632 111.726 86.92C106.685 86.7679 101.64 86.7341 96.6004 86.543C91.627 86.3544 86.6756 85.7951 81.7006 85.6568C75.9206 85.4959 70.1279 85.6008 64.346 85.6008Z" fill="#89C5CC"/>
<path fill-rule="evenodd" clip-rule="evenodd" d="M61.7492 70.8355C65.7954 71.0122 69.7985 76.8802 65.7045 79.7161C61.8639 82.3772 54.6659 79.4609 56.8016 74.3009C56.4946 75.0469 57.1897 73.4904 57.1985 73.48C57.6046 73.0015 58.3339 72.4718 58.8344 72.0947C59.4073 71.663 60.0038 71.1879 60.6945 70.9715C61.1479 70.8296 61.0767 71.3638 61.7492 70.8355ZM59.7784 68.7191C57.8847 69.4585 57.0204 70.2926 55.719 71.8019C54.8185 72.8464 53.6706 73.3959 53.6807 74.8074C53.6829 75.1199 54.0843 75.4632 54.1536 75.7641C54.2494 76.18 54.1384 76.7127 54.2144 77.1546C54.9978 81.7138 60.4376 83.2509 64.4194 82.3902C67.888 81.6404 70.482 78.3108 69.6785 74.6903C68.8696 71.0457 63.465 67.2771 59.7784 68.7191Z" fill="#89C5CC"/>
<path fill-rule="evenodd" clip-rule="evenodd" d="M58.0913 75.0838C58.0913 76.7239 60.6821 76.7239 60.6821 75.0838C60.6821 73.4624 58.0913 73.3927 58.0913 75.0838Z" fill="#89C5CC"/>
<path fill-rule="evenodd" clip-rule="evenodd" d="M61.3325 74.7518C61.3325 76.0552 63.3911 76.0552 63.3911 74.7518C63.3911 73.4634 61.3325 73.4083 61.3325 74.7518Z" fill="#89C5CC"/>
<path fill-rule="evenodd" clip-rule="evenodd" d="M61.97 77.4396C61.3108 77.693 60.4746 77.1675 59.9334 77.5137C58.975 78.1273 59.9358 78.6825 60.4496 78.929C62.7626 80.0389 63.1742 76.9784 61.97 77.4396Z" fill="#89C5CC"/>
<path fill-rule="evenodd" clip-rule="evenodd" d="M97.2948 73.8044C97.2261 73.8336 96.9813 73.9372 97.2948 73.8044V73.8044ZM87.2224 72.3324C85.4912 72.7233 84.0295 74.34 82.1485 74.1237C80.7071 73.9579 79.7311 72.5669 78.3082 72.3648C76.4878 72.1059 71.5336 76.2585 74.1383 76.971C75.658 77.3869 76.501 74.6097 77.8436 74.4621C78.9056 74.3454 80.3499 75.6478 81.4505 75.8332C83.5036 76.1792 84.9136 75.0482 86.716 74.319C88.6745 73.5264 89.7888 74.2401 91.4921 75.1209C92.8366 75.8162 94.1028 76.2689 95.6412 75.982C97.085 75.713 98.8987 74.2283 100.352 74.3806C101.775 74.5298 102.791 76.0153 104.256 76.1532C104.859 76.2099 105.758 76.4155 105.656 75.4841C105.575 74.7384 104.743 74.8647 104.222 74.5936C102.884 73.8965 101.631 72.6616 100.016 72.7669C98.8003 72.8463 97.6938 73.7002 96.5738 74.1088C92.9057 75.4466 90.8436 71.5203 87.2224 72.3324Z" fill="#89C5CC"/>
<path fill-rule="evenodd" clip-rule="evenodd" d="M90.2871 95.9556C83.2114 96.0205 76.1119 96.1256 69.056 96.6928C67.3832 96.8272 50.3026 98.4399 50.335 98.5561C50.3949 98.771 52.5918 99.0993 52.5781 99.15C52.43 98.7828 52.0915 98.6307 51.5629 98.6943C67.7624 98.6943 83.9106 97.2438 100.131 97.5047C104.207 97.5702 108.298 97.5428 112.371 97.6712C113.388 97.7033 115.907 98.4321 116.706 97.973C118.802 96.7679 114.994 96.6288 114.364 96.5783C106.381 95.9397 98.2922 95.8757 90.2871 95.9556Z" fill="#69A1AC"/>
<path fill-rule="evenodd" clip-rule="evenodd" d="M48.2376 99.3934C47.1799 100.454 48.1539 104.269 48.1955 105.703C48.2559 107.776 48.2062 109.864 48.3881 111.932C48.5958 114.294 48.9179 116.811 49.5376 119.102C49.879 120.365 51.077 122.371 51.5517 120.077C51.8907 118.439 51.376 116.265 51.1969 114.596C50.9573 112.363 50.8994 110.16 50.8904 107.916C50.8823 105.961 50.8447 103.998 50.6844 102.049C50.6011 101.037 50.0921 97.5488 48.2376 99.3934Z" fill="#69A1AC"/>
<path fill-rule="evenodd" clip-rule="evenodd" d="M74.8518 118.824C69.8306 118.91 64.7986 119.028 59.7859 119.342C57.7314 119.471 55.6785 119.662 53.6315 119.879C53.2138 119.923 48.5905 120.111 50.6564 121.817C51.5888 122.588 55.4245 121.523 56.6913 121.412C58.822 121.225 60.9523 121.104 63.0891 121.013C68.0403 120.803 73.0066 120.617 77.9627 120.703C87.0139 120.86 96.007 120.93 105.061 120.729C106.347 120.7 116.425 120.969 116.767 119.631C117.043 118.552 113.439 119.047 112.782 119.067C110.371 119.139 107.96 119.122 105.549 119.11C95.3338 119.057 85.0592 118.651 74.8518 118.824Z" fill="#69A1AC"/>
<path fill-rule="evenodd" clip-rule="evenodd" d="M115.06 97.6039C115.22 102.075 115.981 106.54 116.225 111.024C116.336 113.074 116.467 115.122 116.567 117.172C116.599 117.834 116.333 119.428 117.115 119.808C118.188 120.33 118.333 119.279 118.533 118.567C119.114 116.513 118.721 113.844 118.668 111.734C118.618 109.69 118.614 107.643 118.463 105.603C118.309 103.519 117.889 101.474 117.695 99.3973C117.612 98.519 117.9 97.0575 116.968 96.5124C116.162 96.0413 115.026 96.635 115.06 97.6039Z" fill="#69A1AC"/>
<path fill-rule="evenodd" clip-rule="evenodd" d="M65.7067 105.041C65.7258 105.055 65.7447 105.07 65.7636 105.085C65.7447 105.07 65.7256 105.055 65.7067 105.041ZM61.4401 103.716C63.0313 104.171 64.3382 104.001 65.8581 105.16C67.1182 106.12 68.4106 107.525 68.8285 109.078C69.7941 112.666 66.5207 114.632 63.4519 114.671C60.3086 114.71 55.6559 113.981 55.817 109.952C55.9405 106.857 58.2008 103.836 61.4401 103.716ZM61.5518 101.689C57.4257 101.894 54.0974 106.528 54.1331 110.428C54.1761 115.155 59.5325 116.373 63.3374 116.406C67.6317 116.443 71.9139 113.477 70.7631 108.648C69.8411 104.779 65.5196 101.482 61.5518 101.689Z" fill="#69A1AC"/>
<path fill-rule="evenodd" clip-rule="evenodd" d="M57.4014 108.035C57.4014 109.354 59.4841 109.354 59.4841 108.035C59.4841 106.732 57.4014 106.676 57.4014 108.035Z" fill="#69A1AC"/>
<path fill-rule="evenodd" clip-rule="evenodd" d="M61.77 107.457C61.77 108.786 63.8693 108.786 63.8693 107.457C63.8693 106.144 61.77 106.087 61.77 107.457Z" fill="#69A1AC"/>
<path fill-rule="evenodd" clip-rule="evenodd" d="M59.3613 110.464C58.0057 111.817 62.7679 114.19 63.8909 112.307C64.8134 110.761 62.805 111.273 62.093 111.19C61.3193 111.098 59.9929 109.834 59.3613 110.464Z" fill="#69A1AC"/>
<path fill-rule="evenodd" clip-rule="evenodd" d="M97.4355 107.484C97.3053 107.539 97.3053 107.539 97.4355 107.484V107.484ZM79.5528 105.281C78.1802 105.538 73.6756 107.058 73.6149 108.687C73.5037 111.647 77.9153 108.615 78.8733 108.225C81.4756 107.168 82.843 109.325 85.4572 109.439C87.7277 109.538 89.8154 107.595 91.9541 107.825C94.195 108.065 95.2729 110.449 97.8599 109.183C99.2285 108.514 99.194 107.482 97.6577 107.384C96.729 107.326 96.0911 107.709 95.123 107.31C93.6089 106.685 92.9991 105.668 91.1873 105.83C89.8201 105.952 88.5844 106.722 87.2499 107.021C84.1941 107.703 82.4991 104.729 79.5528 105.281Z" fill="#69A1AC"/>
<path fill-rule="evenodd" clip-rule="evenodd" d="M107.978 108.769C107.884 108.809 107.884 108.809 107.978 108.769V108.769ZM108.325 107.537C108.34 107.543 108.443 107.687 108.325 107.537V107.537ZM106.751 106.596C106.692 106.641 106.692 106.641 106.751 106.596V106.596ZM106.786 106.585C107.091 106.767 109.544 108.444 107.762 108.84C106.858 109.04 106.109 107.22 106.786 106.585ZM105.973 104.726C102.044 106.518 106.272 112.93 109.356 110.325C110.654 109.228 110.824 107.013 109.562 105.871C108.806 105.186 107 104.257 105.973 104.726Z" fill="#69A1AC"/>
<path fill-rule="evenodd" clip-rule="evenodd" d="M69.0855 129.992C64.1822 129.994 59.2358 129.891 54.339 130.182C53.5149 130.23 50.3756 130.074 49.9511 130.935C49.1743 132.511 52.4044 131.729 52.8737 131.681C62.6237 130.705 72.8084 131.267 82.5905 131.545C90.5908 131.773 98.5483 131.914 106.539 132.326C108.64 132.434 110.738 132.554 112.837 132.681C113.521 132.722 115.243 133.176 115.387 132.083C115.521 131.072 113.373 131.3 112.836 131.272C108.57 131.047 104.306 130.812 100.041 130.572C89.7738 129.993 79.3687 129.991 69.0855 129.992Z" fill="#89C5CC"/>
<path fill-rule="evenodd" clip-rule="evenodd" d="M49.7935 131.745C48.8776 132.655 49.3069 136.131 49.2814 137.281C49.2367 139.29 49.1418 141.298 49.0993 143.307C49.055 145.407 49.1165 147.517 49.2407 149.614C49.2927 150.494 50.0154 154.749 51.1531 152.314C51.6614 151.226 51.1408 148.195 51.1486 146.962C51.1626 144.718 51.2834 142.484 51.3951 140.243C51.4911 138.317 51.4946 136.388 51.5789 134.462C51.6056 133.847 51.6782 129.854 49.7935 131.745Z" fill="#89C5CC"/>
<path fill-rule="evenodd" clip-rule="evenodd" d="M116.213 149.696C111.441 150.185 106.592 149.953 101.802 150.315C97.6741 150.626 93.5497 150.753 89.4108 150.841C80.0386 151.039 70.6505 151.232 61.3055 152.013C59.1757 152.19 57.0486 152.379 54.9131 152.475C53.8452 152.523 49.3638 152.037 49.0301 153.162C48.4617 155.08 53.2541 154.321 54.2878 154.291C56.5609 154.225 58.8233 154.061 61.09 153.888C70.6186 153.162 80.1836 152.945 89.7325 152.643C94.9258 152.48 100.083 152.1 105.265 151.754C107.847 151.582 110.437 151.576 113.02 151.409C113.696 151.365 116.087 151.452 116.574 150.908C116.907 150.534 116.992 149.623 116.213 149.696Z" fill="#89C5CC"/>
<path fill-rule="evenodd" clip-rule="evenodd" d="M114.595 132.071C114.759 136.647 115.017 141.219 115.172 145.795C115.218 147.172 114.802 149.638 115.569 150.852C116.801 152.803 117.763 150.738 117.988 149.522C118.701 145.684 117.935 141.445 117.736 137.583C117.66 136.11 118.118 132.831 117.406 131.513C116.728 130.257 114.534 130.383 114.595 132.071Z" fill="#89C5CC"/>
<path fill-rule="evenodd" clip-rule="evenodd" d="M106.584 138.588C108.412 139.084 108.679 143.058 106.616 143.352C103.546 143.79 104.889 139.408 106.584 138.588ZM106.071 137.008C105.514 136.99 104.226 136.837 103.883 137.29C103.595 137.67 103.886 138.472 103.852 138.833C103.731 140.127 102.68 140.873 103.15 142.4C103.469 143.436 104.323 144.41 105.365 144.77C110.859 146.669 110.792 136.053 106.071 137.008Z" fill="#89C5CC"/>
<path fill-rule="evenodd" clip-rule="evenodd" d="M56.4631 137.721C56.4494 137.738 56.4357 137.755 56.4222 137.773C56.4357 137.755 56.4494 137.738 56.4631 137.721ZM60.779 135.425C60.7575 135.241 60.736 135.057 60.7144 134.873C63.6936 136.279 66.0641 138.895 65.075 142.406C64.3202 145.085 61.5932 146.035 59.0525 145.374C56.2401 144.642 54.8962 142.324 55.6545 139.477C56.0043 138.164 57.0787 136.399 58.4674 135.977C59.1138 135.78 60.5434 136.281 60.779 135.425ZM59.037 134.313C58.2834 134.363 57.5499 134.678 56.9349 135.107C57.5107 134.62 58.278 134.33 59.037 134.313ZM59.0587 132.583C57.1972 132.64 55.9774 133.766 54.8732 135.12C54.5267 135.545 53.3552 136.671 53.5002 137.243C53.6149 137.696 53.915 138.358 54.5471 137.853C51.2368 144.451 59.7884 150.078 65.009 145.49C69.8811 141.208 65.0473 132.382 59.0587 132.583Z" fill="#89C5CC"/>
<path fill-rule="evenodd" clip-rule="evenodd" d="M57.3672 138.711C57.3672 139.59 58.731 139.59 58.731 138.711C58.731 137.833 57.3672 137.833 57.3672 138.711Z" fill="#89C5CC"/>
<path fill-rule="evenodd" clip-rule="evenodd" d="M59.6948 138.861C59.6948 139.754 61.0807 139.754 61.0807 138.861C61.0807 137.968 59.6948 137.968 59.6948 138.861Z" fill="#89C5CC"/>
<path fill-rule="evenodd" clip-rule="evenodd" d="M60.7513 141.997C60.103 142.049 57.7298 141.829 57.3133 142.397C56.6172 143.346 57.7282 143.379 58.2738 143.481C58.7654 143.574 60.902 143.522 61.2031 143.085C61.4692 142.699 61.407 141.941 60.7513 141.997Z" fill="#89C5CC"/>
<path fill-rule="evenodd" clip-rule="evenodd" d="M89.3437 139.535C89.2326 139.581 89.2326 139.581 89.3437 139.535V139.535ZM80.377 138.88C78.9161 138.987 77.6788 139.828 76.2821 140.163C74.7912 140.521 74.146 139.863 72.7904 139.432C71.3802 138.983 70.377 139.16 69.2435 140.124C68.6013 140.669 67.1923 141.925 67.5937 142.895C68.5129 145.114 70.5934 141.504 71.572 141.336C73.0986 141.074 74.4568 142.409 76.2171 142.027C77.8122 141.681 79.2277 140.586 80.8938 140.574C82.287 140.564 83.6 141.326 84.9755 141.511C87.0752 141.792 88.4539 141.047 90.3949 140.493C92.0781 140.013 93.2584 140.646 94.8416 141.179C95.5651 141.422 97.9794 142.306 97.535 140.703C97.4094 140.25 94.2278 139.44 93.7346 139.284C91.9951 138.734 90.8936 138.948 89.2366 139.58C87.8548 140.107 86.6925 140.364 85.2108 140.074C83.5785 139.754 82.094 138.75 80.377 138.88Z" fill="#89C5CC"/>
</g>
<g opacity="0.5">
<path fill-rule="evenodd" clip-rule="evenodd" d="M147.592 65.3375C147.827 60.265 148.152 55.1997 148.323 50.1242C148.407 47.6092 148.474 45.0939 148.538 42.5783C148.552 42.0182 148.566 41.4583 148.579 40.8982C148.621 38.9952 148.395 38.8395 150.31 38.6706C158.853 37.9165 167.43 37.6666 175.984 36.9843C186.299 36.1614 196.669 35.5933 207.014 35.3386C211.611 35.2252 216.228 34.9904 220.825 35.1333C221.844 35.165 223.844 34.8999 224.245 35.6918C224.418 36.0339 224.055 37.2111 224.009 37.6058C223.864 38.839 223.73 40.0765 223.647 41.3158C223.158 48.6252 223.449 56.1189 224.865 63.3176C221.545 61.4453 217.35 59.8348 213.48 60.1545C209.534 60.4803 206.583 62.7598 203.425 64.8579C201.639 66.0445 201.037 66.3566 199.255 65.207C197.719 64.2162 196.266 63.0834 194.817 61.9717C192.581 60.2558 190.471 58.3954 188.303 56.5966C184.316 53.2892 178.823 48.5815 173.317 49.9676C169.383 50.9579 165.75 53.12 162.336 55.2361C157.263 58.3798 152.671 62.2297 147.592 65.3375ZM215.963 32.8807C196.362 32.8807 176.908 34.7808 157.363 35.8087C155.322 35.916 153.288 36.074 151.254 36.2704C149.898 36.4012 146.583 35.8517 145.695 37.01C145.102 37.7828 145.611 37.8988 145.695 38.633C145.8 39.5584 145.737 40.6548 145.71 41.6343C145.645 43.9944 145.576 46.3542 145.523 48.7146C145.32 57.6352 145.194 66.5541 145.555 75.4724C145.634 77.4174 146.343 80.1103 145.955 82.0003C145.674 83.3686 144.736 84.2014 146.9 84.4542C149.029 84.7032 151.633 84.07 153.765 83.8673C155.909 83.6632 158.052 83.4419 160.198 83.2649C169.53 82.4959 178.953 82.6122 188.309 82.3566C197.75 82.0988 207.194 82.0823 216.638 82.0771C220.589 82.0749 225.104 82.297 228.96 81.2096C230.316 80.8269 230.536 80.6383 230.201 79.2924C230.138 79.0371 229.728 78.9428 229.608 78.4812C229.445 77.853 229.529 77.0895 229.49 76.4355C229.365 74.2999 229.322 72.1604 229.221 70.0234C229.053 66.4528 228.438 62.9875 227.983 59.4528C227.457 55.3708 227.484 51.2261 227.474 47.1173C227.467 44.8383 227.526 42.5668 227.709 40.2941C227.826 38.8365 228.544 36.6602 228.18 35.3008C227.999 34.624 227.702 34.0872 226.998 33.7959C226.551 33.6112 226.176 33.7558 225.735 33.709C225.212 33.6535 224.885 33.58 224.258 33.438C221.572 32.8292 218.7 32.8807 215.963 32.8807Z" fill="#69A1AC"/>
<path fill-rule="evenodd" clip-rule="evenodd" d="M205.116 42.5853C205.114 44.0058 204.893 46.102 205.548 47.4396C206.378 49.1363 207.418 48.606 207.693 47.0116C207.85 46.098 207.847 43.3944 207.553 42.5853C207.138 41.44 205.116 40.6599 205.116 42.5853Z" fill="#89C5CC"/>
<path fill-rule="evenodd" clip-rule="evenodd" d="M207.499 43.1338C206.165 43.1808 202.281 42.8607 201.379 43.933C199.831 45.7722 202.526 46.098 203.683 45.995C205.021 45.8759 209.158 46.1665 210.055 45.093C211.555 43.2971 208.548 43.0955 207.499 43.1338Z" fill="#89C5CC"/>
<path fill-rule="evenodd" clip-rule="evenodd" d="M155.747 90.59C161.61 91.6085 159.786 100.548 154.238 98.4771C152.305 97.7556 149.457 95.671 150.525 93.2147C151.324 91.3796 153.925 90.4152 155.747 90.59ZM153.319 87.8106C149.506 88.4525 146.9 92.5788 148.207 96.178C149.468 99.6503 154.252 102.193 157.78 100.945C161.147 99.7538 162.827 95.2729 161.692 91.995C160.506 88.5702 156.641 87.2514 153.319 87.8106Z" fill="#89C5CC"/>
<path fill-rule="evenodd" clip-rule="evenodd" d="M188.981 91.6356C187.521 91.7568 186.259 92.7788 184.791 92.9598C183.417 93.1289 182.279 92.659 180.993 92.2834C179.439 91.8296 178.013 91.6299 176.425 92.0332C175.211 92.3415 174.014 93.1674 172.753 93.2671C170.272 93.463 167.389 90.6323 165.452 93.8339C164.523 95.3688 165.871 96.3574 167.26 95.6416C168.708 94.8956 167.997 94.6284 169.793 95.0692C171.292 95.4366 172.503 95.6362 174.004 95.1212C175.364 94.6548 176.558 93.8013 178.036 93.7054C179.483 93.6116 180.742 94.2707 182.125 94.5551C183.826 94.9048 185.331 94.6402 186.943 94.107C188.476 93.5998 189.088 93.3224 190.635 93.7748C191.615 94.0614 193.755 94.9716 194.708 94.2381C196.357 92.9699 194.149 92.7845 193.28 92.6042C191.881 92.3144 190.433 91.5168 188.981 91.6356Z" fill="#89C5CC"/>
<path fill-rule="evenodd" clip-rule="evenodd" d="M222.384 90.7834C222.396 90.7924 222.408 90.8013 222.419 90.8103C222.408 90.8013 222.396 90.7924 222.384 90.7834ZM220.952 90.4839C223.083 90.6212 225.388 94.5032 222.564 94.6409C220.576 94.738 218.353 91.3387 220.952 90.4839ZM220.653 87.3074C213.915 89.1891 216.995 98.6892 223.495 97.5918C226.447 97.0933 227.448 93.673 226.472 91.1412C226.053 90.0537 225.235 89.1369 224.259 88.511C223.538 88.0494 221.477 87.078 220.653 87.3074Z" fill="#89C5CC"/>
<path fill-rule="evenodd" clip-rule="evenodd" d="M189.215 107.14C195.145 106.937 201.075 106.733 207.011 106.678C210.228 106.648 213.427 106.705 216.639 106.889C218.064 106.971 219.488 107.05 220.913 107.11C221.159 107.12 221.499 107.103 221.874 107.085C222.756 107.042 223.834 106.989 224.341 107.257C227.176 108.757 221.399 108.921 220.697 108.909C219.124 108.883 217.553 108.805 215.982 108.728C214.609 108.66 213.236 108.592 211.861 108.558C203.044 108.342 194.173 108.738 185.341 109.132L185.341 109.132C183.316 109.223 181.294 109.313 179.274 109.396C177.13 109.484 174.987 109.541 172.843 109.598L172.843 109.598C169.779 109.679 166.715 109.76 163.651 109.932C162.481 109.998 161.312 110.068 160.142 110.137C158.466 110.237 156.79 110.337 155.114 110.425C153.801 110.494 152.489 110.562 151.174 110.595C150.938 110.601 150.629 110.634 150.293 110.669L150.293 110.669H150.293C149.478 110.756 148.498 110.861 147.968 110.644C147.331 110.384 146.816 110.02 147.166 109.248C147.462 108.595 148.539 108.673 149.324 108.73C149.538 108.746 149.731 108.76 149.88 108.757C152.388 108.708 154.891 108.567 157.395 108.414C158.311 108.358 159.227 108.3 160.143 108.243C164.909 107.943 169.672 107.643 174.451 107.562C179.374 107.478 184.295 107.309 189.215 107.14ZM220.185 146.167L221.89 146.146C222.77 146.223 223.164 147.146 222.599 147.857C222.166 148.401 220.5 148.425 219.415 148.441C219.114 148.446 218.857 148.45 218.684 148.464C215.85 148.691 213.021 148.794 210.179 148.821C204.192 148.878 198.229 149.134 192.252 149.475C186.135 149.824 180.012 149.955 173.889 150.086H173.889C169.384 150.183 164.879 150.279 160.375 150.463C157.796 150.568 155.217 150.646 152.637 150.714C152.36 150.721 151.991 150.761 151.574 150.806C149.944 150.982 147.576 151.237 147.04 149.943C146.564 148.794 147.225 148.266 148.193 148.025C148.04 147.345 148.069 146.389 148.085 145.842C148.09 145.677 148.094 145.549 148.091 145.477C148.067 144.791 148.05 144.104 148.033 143.417C148.014 142.639 147.994 141.861 147.964 141.084C147.937 140.378 147.912 139.671 147.887 138.964C147.787 136.176 147.687 133.382 147.472 130.605C147.373 129.323 147.216 128.057 147.059 126.792C146.809 124.773 146.559 122.759 146.548 120.698C146.545 120.328 146.527 119.864 146.506 119.341C146.399 116.665 146.23 112.434 147.891 111.146C150.819 109.437 150.24 114.37 149.982 116.572C149.939 116.935 149.905 117.224 149.898 117.397C149.729 121.057 149.958 124.557 150.326 128.195C150.575 130.651 150.429 133.1 150.284 135.552C150.232 136.428 150.18 137.305 150.146 138.182C150.129 138.616 150.114 139.05 150.099 139.484C150.053 140.819 150.007 142.153 149.906 143.487C149.895 143.631 149.892 143.908 149.887 144.262C149.874 145.259 149.853 146.867 149.64 147.844C150.094 147.824 150.535 147.829 150.899 147.833H150.899H150.899C151.132 147.836 151.333 147.838 151.486 147.833C152.185 147.812 152.884 147.792 153.583 147.771C155.649 147.711 157.714 147.65 159.779 147.572C164.654 147.389 169.53 147.328 174.406 147.267H174.406H174.406C180.165 147.194 185.924 147.122 191.681 146.849C201.168 146.398 210.687 146.282 220.184 146.167H220.185L220.185 146.167ZM221.945 110.378C221.94 116.649 222.425 122.748 222.991 128.993C223.342 132.857 223.623 136.735 223.846 140.608C223.857 140.787 223.855 141.086 223.853 141.461V141.461C223.842 143.603 223.817 148.218 225.934 147.114C227.532 146.28 226.918 141.447 226.578 138.773C226.503 138.186 226.442 137.703 226.42 137.389C226.374 136.721 226.328 136.052 226.282 135.383C226.069 132.278 225.856 129.176 225.576 126.075L225.517 125.421C225.193 121.839 224.869 118.26 224.812 114.661C224.807 114.363 224.836 113.949 224.868 113.481V113.481C224.961 112.126 225.086 110.322 224.523 109.602C223.732 108.59 221.947 108.889 221.945 110.378Z" fill="#69A1AC"/>
<path fill-rule="evenodd" clip-rule="evenodd" d="M189.486 125.751C197.06 122.324 204.722 118.858 212.598 116.389C213.167 116.211 213.527 116.798 213.398 117.291C213.265 117.798 212.033 118.231 211.216 118.519C210.971 118.604 210.764 118.677 210.634 118.735C209.534 119.226 208.431 119.712 207.328 120.197C206.199 120.694 205.069 121.191 203.943 121.694C201.6 122.741 199.256 123.783 196.911 124.825C194.401 125.941 191.89 127.056 189.381 128.178C189.286 128.221 189.191 128.263 189.096 128.306C192.507 129.518 195.898 130.784 199.274 132.088C200.428 132.534 201.577 132.989 202.727 133.444C203.378 133.701 204.028 133.959 204.68 134.214C204.892 134.298 205.261 134.41 205.705 134.546C207.151 134.987 209.387 135.67 209.553 136.36C209.822 137.484 206.734 136.397 205.569 135.987C205.414 135.932 205.293 135.89 205.219 135.866C203.5 135.317 201.801 134.704 200.103 134.092L199.868 134.008C198.523 133.523 197.179 133.033 195.835 132.543C193.211 131.586 190.587 130.629 187.948 129.711C187.575 129.581 187.201 129.452 186.828 129.323C182.593 131.225 178.367 133.145 174.154 135.096C171.896 136.142 169.649 137.212 167.409 138.297C166.92 138.534 166.314 138.9 165.656 139.298C164.08 140.25 162.203 141.385 160.912 141.357C160.22 141.341 159.753 141.193 159.681 140.354C159.606 139.488 160.717 139.034 161.516 138.707C161.707 138.629 161.881 138.558 162.016 138.491C164.41 137.293 166.819 136.126 169.236 134.973C174.035 132.684 178.879 130.487 183.74 128.333C183.768 128.32 183.796 128.308 183.824 128.296C181.128 127.383 178.424 126.493 175.715 125.621C175.444 125.534 174.89 125.38 174.161 125.178C170.716 124.224 163.379 122.192 163.706 121.005C164.08 119.647 170.959 122.129 174.005 123.228C174.575 123.434 175.011 123.591 175.245 123.665C178.886 124.826 182.517 126.019 186.129 127.266C187.246 126.764 188.365 126.258 189.486 125.751Z" fill="#89C5CC"/>
<path fill-rule="evenodd" clip-rule="evenodd" d="M157.033 155.574C159.25 155.962 160.814 158.089 160.571 160.316C160.242 163.326 157.243 164.705 154.472 164.312C151.328 163.867 150.667 161.209 152.19 158.652C152.527 158.086 152.915 157.409 153.528 157.11C153.949 156.906 154.486 157.087 154.826 156.922C156.016 156.343 155.3 155.42 157.033 155.574ZM156.024 153.608C153.319 153.954 148.32 157.084 148.573 160.216C148.793 160.579 149.123 160.728 149.564 160.662C149.458 161.34 149.492 162.012 149.667 162.676C149.924 163.538 150.437 164.244 151.124 164.806C152.539 165.962 154.473 166.246 156.234 166.043C159.524 165.665 162.116 163.417 162.301 159.995C162.481 156.656 159.566 153.16 156.024 153.608Z" fill="#89C5CC"/>
<path fill-rule="evenodd" clip-rule="evenodd" d="M169.127 157.684C167.913 158.327 165.993 159.315 165.281 160.537C164.529 161.827 165.308 163.239 166.892 162.629C168.15 162.144 168.95 160.604 170.292 160.111C171.476 159.675 171.953 159.897 173.204 160.331C174.494 160.778 175.621 161.209 177.015 161.1C178.766 160.962 180.284 159.946 181.999 159.715C183.442 159.521 184.633 160.082 186.016 160.306C187.62 160.565 188.669 159.958 190.17 159.642C191.191 159.427 192.99 160.302 193.735 159.974C195.409 159.238 193.638 158.338 192.711 158.041C191.15 157.54 190.189 157.982 188.704 158.397C187.091 158.848 186.395 158.509 184.853 158.095C181.735 157.257 179.326 159.283 176.37 158.915C173.633 158.574 171.996 156.165 169.127 157.684Z" fill="#89C5CC"/>
<path fill-rule="evenodd" clip-rule="evenodd" d="M220.119 156.186C223.12 159.001 219.748 163.004 216.438 160.755C215.274 159.964 215.255 158.692 216.162 157.555C216.991 156.514 218.812 156.109 220.119 156.186ZM219.005 153.912C216.201 154.458 213.556 155.745 213.302 158.981C213.054 162.139 216.293 163.606 219.014 163.399C225.124 162.933 224.682 152.815 219.005 153.912Z" fill="#89C5CC"/>
</g>
<path opacity="0.5" fill-rule="evenodd" clip-rule="evenodd" d="M285.433 49.0316C283.19 49.0749 277.651 49.8908 276.827 52.5444C276.202 54.5586 278.059 54.1163 279.054 53.3834C280.401 52.3923 281.581 51.7992 283.25 51.4976C289.604 50.3482 295.71 54.4701 302.004 54.9913C304.388 55.1888 307.265 55.3175 309.541 54.5454C311.163 53.9956 311.374 52.7968 309.524 52.6141C307.952 52.4591 306.213 52.9479 304.602 52.934C297.933 52.877 292.006 48.9062 285.433 49.0316Z" fill="#C1DEE2"/>
<g opacity="0.5">
<path fill-rule="evenodd" clip-rule="evenodd" d="M49.7408 175.049C45.449 175.098 41.1593 175.256 36.876 175.527C32.8027 175.785 28.3831 175.589 24.3762 176.379C23.2384 176.603 21.7014 177.64 23.2143 178.78C24.2777 179.582 28.1682 178.66 29.438 178.582C34.1143 178.295 38.793 177.95 43.476 177.785C47.9093 177.628 52.3423 177.573 56.7778 177.529C57.455 177.522 58.579 177.305 59.2534 177.501C60.2223 177.784 59.9925 177.861 60.065 179.091C60.1966 181.319 60.1602 183.556 60.116 185.786C60.0733 187.945 59.9934 190.103 60.0012 192.262C60.0067 193.803 59.5142 196.864 60.2873 198.202C61.4 200.128 62.5543 198.036 62.6375 196.757C62.7967 194.309 62.7254 191.831 62.7261 189.38C62.7265 187.08 62.7431 184.779 62.662 182.48C62.6032 180.819 62.8406 177.92 61.9459 176.41C61.0346 174.872 58.8405 175.204 57.2395 175.13C54.7422 175.015 52.2403 175.023 49.7408 175.049Z" fill="#89C5CC"/>
<path fill-rule="evenodd" clip-rule="evenodd" d="M22.4345 177.825C22.4392 182.148 21.9392 186.441 21.7991 190.759C21.7348 192.744 21.6045 194.923 22.1066 196.872C22.6135 198.839 24.2235 199.266 24.4089 197.069C24.7845 192.621 24.6923 188.009 24.9848 183.526C25.088 181.943 25.7597 179.042 25.1326 177.559C24.5804 176.254 22.4321 176.003 22.4345 177.825Z" fill="#89C5CC"/>
<path fill-rule="evenodd" clip-rule="evenodd" d="M62.6796 196.878C55.2262 197.864 47.4343 197.505 39.9278 197.66C36.3264 197.734 32.7257 197.739 29.1239 197.776C27.8668 197.789 24.6745 197.311 23.5871 198.018C21.8559 199.143 23.7342 200.011 24.8803 200.036C31.9883 200.192 39.1755 199.865 46.2821 199.631C49.4751 199.527 52.6785 199.475 55.863 199.204C57.8235 199.037 59.9658 198.875 61.8696 198.348C62.2752 198.236 63.1584 198.259 63.2493 197.706C63.3053 197.364 63.2037 196.805 62.6796 196.878Z" fill="#89C5CC"/>
<path fill-rule="evenodd" clip-rule="evenodd" d="M31.6867 203.161C29.6152 203.173 23.3728 202.211 22.5149 204.231C21.3712 206.925 25.8328 206.296 27.0328 206.265C29.7581 206.195 32.4815 206.187 35.2075 206.189C37.8823 206.19 40.5568 206.173 43.2311 206.109C44.0058 206.09 45.8092 206.412 46.2549 205.479C46.5937 204.77 46.326 204.21 45.7013 203.835C44.1981 202.932 40.2929 203.456 38.533 203.374C36.2544 203.269 33.9681 203.161 31.6867 203.161Z" fill="#89C5CC"/>
<path fill-rule="evenodd" clip-rule="evenodd" d="M56.8875 203.659C55.7036 203.73 53.309 203.242 52.2485 203.783C51.0431 204.399 51.4678 205.364 52.5085 205.787C53.2292 206.081 56.1855 205.927 56.8875 205.587C57.6193 205.232 58.4467 203.563 56.8875 203.659Z" fill="#89C5CC"/>
<path fill-rule="evenodd" clip-rule="evenodd" d="M69.8663 178.249C68.602 178.596 68.9855 185.775 68.953 186.913C68.8637 190.03 68.5131 193.952 69.5491 196.954C70.2098 198.868 71.4787 198.609 71.2625 196.594C71.0726 194.825 70.7469 193.076 70.6059 191.296C70.287 187.268 69.8531 182.971 70.1543 178.939C70.2825 179.174 71.482 181.346 71.7642 181.184C71.679 181.235 70.3808 178.114 69.8663 178.249Z" fill="#89C5CC"/>
<path fill-rule="evenodd" clip-rule="evenodd" d="M84.0899 175.606C81.5311 175.643 78.9723 175.689 76.4142 175.76C74.3803 175.816 71.1842 175.482 69.3189 176.338C67.0979 177.356 68.1516 179.626 70.2377 179.674C72.0832 179.717 74.0512 179.301 75.9135 179.237C80.9434 179.064 85.9823 179.028 91.0146 178.985C95.5658 178.946 100.31 179.431 104.822 178.747C105.491 184.689 103.681 190.656 104.297 196.666C104.392 197.599 104.349 198.917 105.537 199.129C107.036 199.398 107.098 197.913 107.155 196.849C107.317 193.813 107.229 190.775 107.451 187.735C107.657 184.918 108.063 182.039 107.72 179.217C107.299 175.745 105.635 176.023 102.694 175.879C96.482 175.574 90.3086 175.514 84.0899 175.606Z" fill="#89C5CC"/>
<path fill-rule="evenodd" clip-rule="evenodd" d="M75.5139 196.704C74.2101 196.737 72.0446 196.335 71.2091 197.585C70.3399 198.886 71.3712 200.021 72.6351 200.288C74.1312 200.604 76.082 200.17 77.6348 200.166C79.2518 200.161 80.8693 200.179 82.4864 200.185C89.4192 200.213 96.3817 200.317 103.31 200.031C104.277 199.991 107.023 200.315 107.693 199.387C108.287 198.564 107.871 197.826 107.089 197.407C105.805 196.719 103.167 196.98 101.739 196.926C99.9756 196.858 98.2097 196.836 96.445 196.809C89.4799 196.702 82.4784 196.532 75.5139 196.704Z" fill="#89C5CC"/>
<path fill-rule="evenodd" clip-rule="evenodd" d="M81.3783 202.718C78.7839 202.762 76.0158 202.648 73.4471 203.041C71.1885 203.387 70.9105 205.571 73.3417 205.826C75.576 206.061 78.2848 205.622 80.5299 205.478C81.3273 205.427 82.2546 205.499 82.6368 204.618C83.0357 203.697 82.2731 202.814 81.3783 202.718Z" fill="#89C5CC"/>
<path fill-rule="evenodd" clip-rule="evenodd" d="M100.992 202.947C99.6071 202.981 95.5624 202.386 94.8765 203.967C93.7346 206.601 99.2103 205.6 100.261 205.561C101.585 205.513 106.744 206.286 106.746 204.178C106.747 202.111 102.26 202.915 100.992 202.947Z" fill="#89C5CC"/>
<path fill-rule="evenodd" clip-rule="evenodd" d="M22.2105 216.031C22.2138 220.822 21.9157 225.657 22.3527 230.435C22.5333 232.411 22.5024 236.197 23.647 237.872C24.4596 239.061 25.5865 238.978 26.0303 237.55C26.327 236.595 25.8525 234.686 25.7996 233.665C25.7485 232.685 25.689 231.705 25.6437 230.725C25.5272 228.2 25.5364 225.678 25.5712 223.151C25.6009 220.984 26.1227 218.116 25.6307 216.031C25.172 214.089 22.2105 213.635 22.2105 216.031Z" fill="#69A1AC"/>
<path fill-rule="evenodd" clip-rule="evenodd" d="M70.3525 211.817C62.0417 212.026 53.7122 211.84 45.4088 212.251C41.3137 212.454 37.2347 212.899 33.1602 213.343C31.1584 213.562 29.1578 213.787 27.1595 214.033C26.5565 214.107 21.5456 214.301 23.4303 216.207C24.2532 217.039 26.872 216.17 27.9082 216.047C29.9146 215.81 31.9249 215.604 33.934 215.391C37.7572 214.987 41.5851 214.604 45.4246 214.391C54.4671 213.89 63.547 214.041 72.5985 213.707C75.047 213.617 77.4882 213.552 79.9376 213.648C80.5808 213.674 85.3072 213.914 83.2551 212.168C82.2847 211.342 78.6262 211.768 77.4135 211.744C75.06 211.695 72.7051 211.758 70.3525 211.817Z" fill="#69A1AC"/>
<path fill-rule="evenodd" clip-rule="evenodd" d="M81.6826 219.888C81.6415 217.675 81.6004 215.461 81.4997 213.25C81.3936 210.921 84.5658 210.568 85.5066 212.453C86.1839 213.811 86.0648 216.12 85.9627 218.099C85.9216 218.896 85.8832 219.64 85.9008 220.247C85.9413 221.637 86.0435 223.074 86.1471 224.531C86.4078 228.195 86.6771 231.981 85.992 235.441C85.659 237.122 84.2407 238.006 83.2967 237.089C83.2954 237.091 83.2941 237.093 83.2928 237.095C82.9378 237.618 81.8325 237.617 81.0185 237.616C80.7943 237.616 80.5923 237.616 80.434 237.627C78.204 237.778 76.0154 238.034 73.8052 238.365C69.4015 239.025 65.036 239.431 60.5845 239.541C57.5641 239.616 54.5395 239.641 51.514 239.666C45.7206 239.714 39.9243 239.762 34.1494 240.159C32.2023 240.292 30.2849 240.522 28.3697 240.888C28.2067 240.919 28.0257 240.96 27.833 241.002C26.409 241.319 24.3475 241.778 24.2066 239.787C24.0392 237.426 29.1583 237.116 31.7926 236.957C32.1948 236.933 32.5391 236.912 32.7978 236.888C40.7966 236.144 48.9209 236.259 56.9537 236.373C57.3429 236.379 57.7319 236.384 58.1207 236.389C58.7475 236.398 59.3742 236.408 60.0008 236.419C63.4401 236.475 66.8752 236.532 70.3134 236.322C71.878 236.226 73.4631 236.177 75.0511 236.128C77.5846 236.049 80.1256 235.97 82.6034 235.702C82.2298 234.253 82.1644 232.543 82.1028 230.931C82.0788 230.304 82.0554 229.691 82.0146 229.115C81.7969 226.043 81.7398 222.966 81.6826 219.888Z" fill="#69A1AC"/>
<path fill-rule="evenodd" clip-rule="evenodd" d="M88.409 214.956C87.2863 215.109 86.3498 216.07 86.851 217.288C87.4823 218.823 89.3628 218.223 90.6049 218.126C94.5533 217.817 98.6758 218.435 102.576 217.969C103.642 217.841 105.187 217.261 104.231 215.829C103.512 214.754 100.892 214.942 99.7788 214.839C95.9705 214.487 92.2123 214.581 88.409 214.956Z" fill="#C1DEE2"/>
<path fill-rule="evenodd" clip-rule="evenodd" d="M95.0728 221.651C93.5415 221.754 89.977 221.673 89.3317 223.415C88.1743 226.541 92.708 225.439 94.0883 225.262C95.6919 225.055 99.4721 225.608 100.326 224.053C101.853 221.272 96.4156 221.558 95.0728 221.651Z" fill="#C1DEE2"/>
<path fill-rule="evenodd" clip-rule="evenodd" d="M91.1345 228.51C90.4082 229.237 90.407 230.535 91.1345 231.261C92.0253 232.151 93.9659 231.966 95.1363 232.031C96.7687 232.123 101.457 232.986 102.268 231.064C103.361 228.47 99.1158 228.525 97.7194 228.377C96.1054 228.207 92.4722 227.172 91.1345 228.51Z" fill="#C1DEE2"/>
<path fill-rule="evenodd" clip-rule="evenodd" d="M33.9111 184.116C33.9111 186.905 38.266 186.905 38.266 184.116C38.266 181.343 33.9111 181.301 33.9111 184.116Z" fill="#89C5CC"/>
<path fill-rule="evenodd" clip-rule="evenodd" d="M42.1714 184.148C42.1714 187.336 47.1316 187.329 47.1316 184.148C47.1316 180.971 42.1714 180.939 42.1714 184.148Z" fill="#89C5CC"/>
<path fill-rule="evenodd" clip-rule="evenodd" d="M37.1746 188.386C34.7634 189.052 36.9847 191.095 38.1043 191.562C39.8836 192.304 42.312 192.851 44.0918 191.739C44.7999 191.296 45.3748 190.708 44.8559 189.849C44.3029 188.934 43.5459 189.341 42.7041 189.425C41.6376 189.532 40.7757 189.516 39.7459 189.174C38.9773 188.919 38.0128 188.156 37.1746 188.386Z" fill="#89C5CC"/>
<path fill-rule="evenodd" clip-rule="evenodd" d="M80.9106 184.293C80.9106 186.179 83.8391 186.179 83.8391 184.293C83.8391 182.407 80.9106 182.407 80.9106 184.293Z" fill="#89C5CC"/>
<path fill-rule="evenodd" clip-rule="evenodd" d="M87.3867 184.577C87.3867 186.672 90.6399 186.672 90.6399 184.577C90.6399 182.481 87.3867 182.481 87.3867 184.577Z" fill="#89C5CC"/>
<path fill-rule="evenodd" clip-rule="evenodd" d="M87.1453 189.124C85.4364 189.344 80.4938 189.845 80.2172 191.952C79.7906 195.202 85.2063 192.572 86.4424 192.316C88.0167 191.991 89.4225 192.076 90.9942 192.139C91.8571 192.174 93.0048 192.314 92.9143 190.999C92.766 188.841 88.639 188.933 87.1453 189.124Z" fill="#89C5CC"/>
<path fill-rule="evenodd" clip-rule="evenodd" d="M44.179 219.094C42.9404 219.424 41.32 221.565 42.1722 222.876C43.5696 225.025 44.1859 221.725 44.7707 221.408C45.8348 220.83 46.6986 222.942 47.8106 221.834C49.5654 220.086 45.2837 218.798 44.179 219.094Z" fill="#69A1AC"/>
<path fill-rule="evenodd" clip-rule="evenodd" d="M58.3723 217.505C56.9033 217.518 53.8022 219.598 53.5825 221.133C53.4522 222.046 54.0571 222.923 55.0406 222.935C56.3799 222.951 56.8055 221.21 57.9665 220.846C59.2188 220.453 59.0329 221.357 60.1145 221.826C60.906 222.17 61.8959 222.026 62.1709 221.053C62.6896 219.217 59.8816 217.476 58.3723 217.505Z" fill="#69A1AC"/>
<path fill-rule="evenodd" clip-rule="evenodd" d="M47.1282 226.297C44.7787 227.674 48.6447 230.625 49.9849 230.994C52.0082 231.551 56.0803 230.512 56.5598 228.04C56.7507 227.056 56.1354 226.165 55.0498 226.341C54.156 226.487 53.5827 227.608 52.7548 228.009C51.6374 228.551 50.6439 228.514 49.6943 227.699C48.9208 227.034 48.5065 225.493 47.1282 226.297Z" fill="#69A1AC"/>
<path fill-rule="evenodd" clip-rule="evenodd" d="M48.8305 246.641C46.7314 247.088 44.5975 246.788 42.4882 247.209C40.3373 247.638 39.0519 248.451 37.0537 247.632C36.9596 247.592 36.8659 247.553 36.7721 247.513C35.2254 246.847 33.6044 246.65 31.9855 247.711C31.0274 248.34 28.119 250.513 28.4696 251.839C29.2292 254.714 32.5018 250.206 33.3363 249.766C34.9276 248.929 36.0186 249.999 37.6569 250.301C39.6193 250.663 41.1983 249.626 43.0468 249.213C45.2088 248.73 47.641 248.561 49.8405 248.303C50.7095 248.201 54.001 248.888 54.2981 247.807C54.8086 245.949 49.6556 246.465 48.8305 246.641Z" fill="#C1DEE2"/>
<path fill-rule="evenodd" clip-rule="evenodd" d="M63.9753 252.43C64.1122 252.534 64.0024 252.451 63.9753 252.43V252.43ZM69.8543 246.528C71.6513 246.346 77.4009 245.062 78.5815 246.919C79.3503 248.129 78.1301 252.593 76.9661 253.17C76.0357 253.631 73.8685 253.121 72.8477 253.085C70.9481 253.018 69.0446 252.989 67.1471 252.87C66.5108 252.83 64.4632 252.947 63.9643 252.384C63.3752 251.719 63.4014 248.174 63.2628 247.295C64.915 247.83 68.1267 246.704 69.8543 246.528ZM73.6922 244.708C71.3906 244.807 69.0895 244.98 66.8052 245.289C65.5319 245.461 64.2417 245.919 63.0657 246.135C62.6866 246.205 62.0713 246.011 61.6064 246.236C60.248 246.892 61.4375 251.329 61.7651 252.515C62.2682 254.336 63.5345 254.631 65.3086 254.802C67.6456 255.029 70.0306 254.957 72.3749 254.929C74.6346 254.901 77.6817 255.402 78.9496 253.134C79.7692 251.668 80.6484 248.254 79.9478 246.62C79.0261 244.471 75.5849 244.628 73.6922 244.708Z" fill="#C1DEE2"/>
<path fill-rule="evenodd" clip-rule="evenodd" d="M99.4646 253.65C99.3419 253.807 99.3419 253.807 99.4646 253.65V253.65ZM99.969 253.042C99.9311 253.099 99.7548 253.285 99.969 253.042V253.042ZM94.4805 252.875C95.495 252.684 96.5099 252.495 97.5256 252.31C96.5638 253.656 95.551 253.1 93.9079 252.982C94.0988 252.946 94.2896 252.911 94.4805 252.875ZM89.6405 252.398C89.8977 252.312 90.1547 252.226 90.4119 252.14C90.4041 252.336 90.4462 252.519 90.5381 252.69C90.0978 252.643 89.658 252.592 89.2186 252.537C89.3592 252.491 89.4999 252.445 89.6405 252.398ZM87.3976 250.742C87.3832 250.389 87.9144 250.631 88.2188 250.608C87.6319 251.124 87.3581 251.169 87.3976 250.742ZM95.4187 246.736C95.4959 246.637 95.5982 246.642 95.7255 246.75C95.5866 246.797 95.0516 247.024 95.4187 246.736ZM100.621 246.124C100.635 246.124 100.923 246.512 100.621 246.124V246.124ZM100.475 245.996C100.55 246.053 100.55 246.053 100.475 245.996V245.996ZM99.8257 245.92C100.889 246.1 100.809 247.348 99.8257 245.92V245.92ZM87.3293 245.835C87.1138 246.014 87.1875 245.84 87.3293 245.835V245.835ZM91.3976 243.178C89.5918 243.283 86.2772 243.177 84.769 244.139C82.801 245.395 83.8365 249.718 84.0127 251.613C84.273 254.414 85.591 255.212 88.2292 255.506C91.3775 255.857 94.6123 255.922 97.777 255.839C100.627 255.764 102.25 254.784 102.772 251.783C102.932 250.865 103.338 249.445 103.325 248.565C103.316 247.955 103.012 247.677 102.897 247.158C102.243 244.205 101.148 243.855 98.1213 243.726C95.8935 243.631 93.5837 243.063 91.3976 243.178Z" fill="#89C5CC"/>
</g>
<g opacity="0.5">
<path fill-rule="evenodd" clip-rule="evenodd" d="M187.053 175.33C191.644 175.428 196.853 177.969 196.127 183.352C195.595 187.295 192.181 190.497 188.227 190.773C183.977 191.069 179.484 187.808 178.906 183.48C178.257 178.613 182.564 175.233 187.053 175.33ZM184.801 173.139C182.94 173.417 181.161 174.394 179.522 175.27C178.897 175.604 175.725 177.643 178.213 178.149C172.219 187.815 186.325 196.794 194.255 190.512C197.817 187.69 199.692 182.342 197.389 178.155C195.009 173.825 189.362 172.454 184.801 173.139Z" fill="#89C5CC"/>
<path fill-rule="evenodd" clip-rule="evenodd" d="M183.705 181.367C183.705 183.172 186.507 183.172 186.507 181.367C186.507 179.562 183.705 179.562 183.705 181.367Z" fill="#89C5CC"/>
<path fill-rule="evenodd" clip-rule="evenodd" d="M188.899 181.656C188.899 183.613 191.937 183.613 191.937 181.656C191.937 179.699 188.899 179.699 188.899 181.656Z" fill="#89C5CC"/>
<path fill-rule="evenodd" clip-rule="evenodd" d="M185.394 185.527C184.985 187.012 189.647 187.773 189.802 186.055C189.876 185.234 185.678 184.491 185.394 185.527Z" fill="#89C5CC"/>
<path fill-rule="evenodd" clip-rule="evenodd" d="M199.059 184.609C204.423 183.965 209.954 184.263 215.344 184.417C216.693 184.456 218.042 184.494 219.391 184.516C220.249 184.531 222.102 184.943 222.85 184.541C225.916 182.897 219.902 182.102 219.051 182.027C213.689 181.585 205.415 181.428 200.038 181.636C198.447 181.698 198.103 184.724 199.059 184.609Z" fill="#89C5CC"/>
<path fill-rule="evenodd" clip-rule="evenodd" d="M223.198 211.276C223.244 205.655 223.446 199.997 223.878 194.393C224.054 192.109 224.265 189.828 224.44 187.544C224.522 186.468 224.904 184.961 224.272 184.017C223.62 183.044 222.191 182.842 221.329 183.704C220.298 185.039 220.598 187.279 220.47 188.894C220.272 191.377 220.034 193.858 219.916 196.346C219.687 201.162 219.633 206.061 220.02 210.87C220.203 213.139 220.599 215.354 221.126 217.567C221.367 218.574 223.276 223.062 222.875 223.681C222.252 224.64 217.654 224.277 216.657 224.304C214.098 224.373 211.537 224.418 208.978 224.467C206.786 224.508 204.594 224.538 202.402 224.558C201.532 224.566 196.418 224.411 197.552 225.701C184.867 226.585 171.939 225.109 159.331 224.603C158.695 224.577 157.653 224.397 156.691 224.345C156.576 223.88 156.481 223.465 156.457 223.176C156.292 221.15 156.248 219.117 156.069 217.091C155.74 213.385 155.103 209.716 154.724 206.016C154.345 202.319 154.383 198.612 154.163 194.907C154.125 194.272 154.036 189.071 152.724 187.808C153.346 188.044 154.349 188.074 154.927 188.028C159.604 187.65 164.247 186.838 168.884 186.14C170.21 185.941 173.221 186.082 174.321 185.419C175.273 184.845 175.65 182.832 173.993 182.995C169.37 183.49 164.771 184.259 160.184 185.016C158.957 185.218 157.733 185.435 156.509 185.656C155.692 185.803 153.535 185.792 152.901 186.285C152.132 186.883 152.05 187.29 152.311 187.56C151.948 187.461 151.513 187.617 150.991 188.14C150.004 189.425 150.932 192.589 151.05 194.095C151.191 195.902 151.261 197.712 151.343 199.522C151.502 203.026 151.869 206.48 152.432 209.941C153.064 213.818 153.601 217.712 154.235 221.588C154.399 222.597 154.614 223.581 154.889 224.556C153.183 225.429 154.342 226.816 155.695 227.063C155.705 227.064 155.715 227.066 155.725 227.067C156.147 228.096 156.737 229.049 157.197 227.671C157.232 227.565 157.249 227.435 157.253 227.288C160.748 227.684 164.589 227.438 168.029 227.579C175.482 227.883 182.98 228.34 190.44 228.109C193.393 228.017 196.355 227.755 199.284 227.361C200.999 227.13 202.722 226.855 204.41 226.472C204.531 226.445 204.715 226.416 204.927 226.381C204.962 226.38 204.997 226.379 205.03 226.378C207.615 226.339 210.198 226.27 212.781 226.163C214.949 226.073 217.127 226.026 219.288 225.822C220.631 225.695 223.468 225.718 224.292 224.368C225.042 223.141 223.789 219.979 223.611 218.6C223.298 216.172 223.178 213.722 223.198 211.276Z" fill="#C1DEE2"/>
<path fill-rule="evenodd" clip-rule="evenodd" d="M196.999 195.047C194.933 195.224 193.023 196.194 190.938 196.206C189.188 196.216 187.466 195.693 185.706 195.77C183.642 195.86 182.507 197.195 180.699 197.641C179.26 197.997 178.353 196.895 177.087 196.408C175.489 195.792 174.308 196.11 172.938 197.041C171.932 197.725 169.584 199.26 169.602 200.643C169.656 204.834 174.545 199.045 175.531 198.975C176.84 198.882 178.304 200.374 179.697 200.46C181.539 200.572 182.72 199.385 184.417 198.952C186.132 198.514 187.987 199.05 189.706 199.217C191.669 199.407 193.386 198.969 195.284 198.501C197.124 198.047 198.691 198.071 200.561 198.452C201.822 198.709 204.965 200.205 205.517 198.282C206.268 195.663 198.443 194.924 196.999 195.047Z" fill="#89C5CC"/>
<path fill-rule="evenodd" clip-rule="evenodd" d="M197.628 203.04C193.396 203.45 189.137 203.811 184.885 203.926C183.044 203.976 175.964 203.187 176.592 205.527C177.13 207.533 186.764 206.27 188.727 206.117C190.893 205.949 193.056 205.714 195.211 205.441C195.975 205.344 197.82 205.444 198.359 204.804C198.873 204.192 198.62 202.94 197.628 203.04Z" fill="#89C5CC"/>
<path fill-rule="evenodd" clip-rule="evenodd" d="M168.428 213.696C168.332 213.737 168.332 213.737 168.428 213.696V213.696ZM169.322 213.685C170.377 213.651 170.151 213.095 171.203 213.385C171.689 213.519 171.739 213.32 172.115 213.784C172.849 214.689 172.158 216.661 171.434 217.39C168.754 220.092 165.537 213.805 169.322 213.685ZM169.322 211.035C161.984 211.281 165.054 222.616 171.44 220.302C174.078 219.346 175.736 215.041 174.185 212.622C173.43 211.445 172.468 211.236 171.203 211.155C170.91 211.136 170.541 211.562 170.357 211.543C169.922 211.497 169.963 211.01 169.322 211.035Z" fill="#89C5CC"/>
<path fill-rule="evenodd" clip-rule="evenodd" d="M186.869 214.085C186.738 214.045 189.186 214.756 188.918 214.478C189.489 215.072 188.721 216.478 188.075 216.723C186.509 217.317 185.63 214.883 186.869 214.085ZM187.955 211.011C185.657 211.337 183.884 212.294 183.57 214.849C183.28 217.207 184.874 219.595 187.387 219.641C192.865 219.741 193.032 210.303 187.955 211.011Z" fill="#89C5CC"/>
<path fill-rule="evenodd" clip-rule="evenodd" d="M212.965 214.188C213.285 218.376 208.943 214.543 212.965 214.188V214.188ZM211.101 209.708C210.721 210.357 211.045 211.046 211.618 211.423C206.496 212.506 207.656 220.214 212.868 219.075C215.519 218.496 216.006 215.709 215.611 213.407C215.423 212.313 212.696 206.981 211.101 209.708Z" fill="#89C5CC"/>
</g>
<path opacity="0.5" fill-rule="evenodd" clip-rule="evenodd" d="M223.219 213.73C221.692 214.001 218.082 215.688 218.114 217.499C218.163 220.326 221.231 217.238 221.913 216.823C225.579 214.592 230.327 217.483 234.144 218.098C235.894 218.38 239.318 218.901 240.864 217.728C243.613 215.642 237.255 216.164 236.445 216.081C232.044 215.626 227.666 212.935 223.219 213.73Z" fill="#C1DEE2"/>
<g opacity="0.5">
<path fill-rule="evenodd" clip-rule="evenodd" d="M295.34 193.852C295.339 196.745 295.193 199.697 295.726 202.555C295.887 203.421 296.014 205.078 296.927 205.527C297.844 205.978 298.733 205.471 298.961 204.532C299.227 203.438 298.644 201.801 298.585 200.653C298.504 199.085 298.498 197.515 298.498 195.944C298.497 194.811 298.87 192.986 297.532 192.403C296.536 191.969 295.34 192.776 295.34 193.852Z" fill="#C1DEE2"/>
<path fill-rule="evenodd" clip-rule="evenodd" d="M341.073 189.276C331.489 190.238 321.767 190.438 312.148 190.94C307.701 191.172 302.328 190.876 298.139 192.597C297.361 192.917 294.575 194.696 296.837 195.42C297.542 195.646 298.258 194.887 298.837 194.632C299.801 194.209 300.917 194.078 301.945 193.912C310.686 192.509 319.828 192.753 328.658 192.097C330.921 191.929 333.184 191.756 335.442 191.534C337.055 191.375 340.446 190.213 341.935 190.807C344.479 191.823 344.419 198.426 344.469 200.697C344.495 201.871 343.356 206.086 345.621 205.659C347.435 205.317 346.778 200.938 346.637 199.74C346.266 196.6 345.634 188.814 341.073 189.276Z" fill="#C1DEE2"/>
<path fill-rule="evenodd" clip-rule="evenodd" d="M344.608 205.507C336.283 206.259 327.766 205.521 319.407 205.817C315.025 205.972 310.648 206.219 306.266 206.363C304.371 206.426 302.474 206.429 300.577 206.442C299.67 206.448 295.543 206.998 298.096 208.796C299.227 209.592 302.83 208.951 304.127 208.936C306.075 208.913 308.023 208.832 309.97 208.755C314.48 208.579 318.987 208.335 323.499 208.213C327.815 208.096 332.134 208.071 336.45 207.954C338.597 207.896 340.774 207.83 342.903 207.516C343.383 207.445 344.943 207.389 345.277 206.854C345.592 206.347 345.371 205.433 344.608 205.507Z" fill="#89C5CC"/>
<path fill-rule="evenodd" clip-rule="evenodd" d="M303.691 199.256C303.647 199.362 303.647 199.362 303.691 199.256V199.256ZM307.297 198.161C307.428 198.216 307.428 198.216 307.297 198.161V198.161ZM307.128 198.13C309.071 200.111 306.083 202.474 304.263 200.542C302.331 198.491 305.877 198.137 307.128 198.13ZM305.068 195.134C298.376 196.325 300.745 205.244 306.995 203.955C309.739 203.389 311.309 200.625 310.364 197.97C309.995 196.932 309.191 195.793 308.071 195.467C307.512 195.304 307.018 195.56 306.486 195.5C305.979 195.443 305.697 195.021 305.068 195.134Z" fill="#C1DEE2"/>
<path fill-rule="evenodd" clip-rule="evenodd" d="M330.679 197.645C326.644 197.657 322.608 197.829 318.573 197.905C317.335 197.929 314.154 197.375 314.149 199.326C314.144 201.411 317.687 200.641 318.866 200.613C322.869 200.517 326.881 200.342 330.867 199.96C331.874 199.864 335.36 200.03 335.356 198.661C335.353 197.21 331.492 197.645 330.679 197.645Z" fill="#C1DEE2"/>
<path fill-rule="evenodd" clip-rule="evenodd" d="M340.317 211.251C330.336 211.519 320.371 211.612 310.399 212.123C306.669 212.314 302.944 212.456 299.208 212.456C298.489 212.456 297.04 212.178 296.363 212.631C294.525 213.86 296.618 214.915 297.815 214.981C306.008 215.436 314.319 214.304 322.506 214.049C327.3 213.899 332.094 213.855 336.884 213.611C338.191 213.545 339.498 213.467 340.803 213.366C341.553 213.308 343.538 213.467 344.144 213.029C346.792 211.112 341.21 211.227 340.317 211.251Z" fill="#89C5CC"/>
<path fill-rule="evenodd" clip-rule="evenodd" d="M294.526 216.131C294.432 218.719 294.422 221.261 294.761 223.835C294.894 224.847 294.955 225.997 296.142 226.254C297.22 226.487 297.766 225.672 297.99 224.768C298.535 222.561 298.055 219.384 298.049 217.09C298.046 215.957 298.045 214.688 296.644 214.431C295.575 214.236 294.566 215.008 294.526 216.131Z" fill="#89C5CC"/>
<path fill-rule="evenodd" clip-rule="evenodd" d="M350.896 222.37C334.74 223.221 318.606 223.964 302.438 224.648C301.177 224.701 291.382 224.594 294.807 228.01C295.864 229.065 298.589 228.351 299.957 228.283C302.013 228.182 304.069 228.105 306.125 228.001C314.274 227.586 322.445 227.474 330.589 227.008C335.07 226.752 339.542 226.351 344 225.829C346.12 225.581 348.752 225.607 350.738 224.776C351.76 224.348 352.863 222.265 350.896 222.37Z" fill="#89C5CC"/>
<path fill-rule="evenodd" clip-rule="evenodd" d="M341.607 209.243C340.378 210.467 341.01 212.881 341.102 214.393C341.23 216.475 341.385 218.557 341.644 220.627C341.813 221.972 341.724 224.064 342.441 225.226C343.281 226.586 345.131 226.435 345.89 225.121C346.562 223.959 346.222 221.514 346.205 220.226C346.181 218.445 346.07 216.662 345.964 214.884C345.876 213.399 346.212 211.018 345.395 209.747C344.565 208.455 342.758 208.098 341.607 209.243Z" fill="#89C5CC"/>
<path fill-rule="evenodd" clip-rule="evenodd" d="M304.679 218.739C304.535 218.85 304.535 218.85 304.679 218.739V218.739ZM307.548 218.38C310.226 218.918 305.896 222.044 304.528 219.899C304.315 219.563 304.203 219.151 304.546 218.86C304.86 218.594 305.056 219.065 305.352 218.939C305.862 218.72 307.005 218.359 307.548 218.38ZM307.179 215.813C305.351 215.958 302.838 216.071 301.933 217.903C300.717 220.365 302.796 222.775 305.201 223.149C307.516 223.51 310.971 222.228 311.156 219.529C311.306 217.352 309.236 215.646 307.179 215.813Z" fill="#89C5CC"/>
<path fill-rule="evenodd" clip-rule="evenodd" d="M322.441 217.115C320.548 217.145 316.829 216.586 315.18 217.508C313.549 218.421 314.276 220.046 315.764 220.435C316.748 220.692 318.356 220.277 319.38 220.235C320.727 220.181 322.076 220.169 323.424 220.15C325.691 220.12 327.957 220.145 330.225 220.145C332.541 220.145 334.896 220.209 337.208 220.039C340.133 219.823 340.054 217.633 337.193 217.359C332.334 216.894 327.316 217.038 322.441 217.115Z" fill="#89C5CC"/>
<path fill-rule="evenodd" clip-rule="evenodd" d="M317.607 241.645C317.607 242.686 318.531 241.645 318.524 241.645C318.531 241.645 317.607 240.604 317.607 241.645Z" fill="#89C5CC"/>
<path fill-rule="evenodd" clip-rule="evenodd" d="M296.721 233.268C296.781 236.293 296.82 239.321 296.949 242.343C296.99 243.299 296.716 245.165 297.875 245.652C299.164 246.195 299.565 244.843 299.714 243.927C300.184 241.025 299.723 237.711 299.678 234.775C299.663 233.789 299.876 232.416 298.756 231.924C297.843 231.523 296.703 232.268 296.721 233.268Z" fill="#89C5CC"/>
<path fill-rule="evenodd" clip-rule="evenodd" d="M346.464 233.315C346.54 233.495 346.54 233.495 346.464 233.315V233.315ZM346.572 233.284C346.634 233.31 346.884 233.415 346.572 233.284V233.284ZM322.137 230.84C317.493 230.913 312.846 230.968 308.206 231.167C306.225 231.252 304.222 231.32 302.248 231.507C300.85 231.639 297.378 231.694 296.471 232.837C294.6 235.195 298.568 234.552 299.422 234.36C300.977 234.011 302.565 233.9 304.154 233.816C307.602 233.634 311.051 233.537 314.503 233.467C323.864 233.279 333.232 233.308 342.595 233.265C343.501 233.261 345.139 232.897 345.977 233.263C346.815 233.631 346.768 234.535 346.855 235.584C346.971 236.979 346.05 239.64 346.752 240.814C347.84 242.635 349.423 241.088 349.665 239.761C349.999 237.926 349.469 235.723 348.95 233.969C348.219 231.495 347.203 231.397 344.81 231.203C342.014 230.977 339.228 230.84 336.422 230.814C331.662 230.771 326.897 230.766 322.137 230.84Z" fill="#89C5CC"/>
<path fill-rule="evenodd" clip-rule="evenodd" d="M340.504 243.344C330.432 244.513 320.073 243.824 309.948 243.865C307.486 243.876 305.021 243.895 302.561 244.015C301.262 244.077 298.182 243.719 297.292 244.722C295.416 246.835 298.796 247.142 300.03 247.054C302.524 246.877 305.025 246.796 307.526 246.777C316.336 246.709 325.196 247.12 333.999 246.685C337.686 246.503 341.292 245.872 344.912 245.167C345.714 245.011 351.203 243.967 348.073 242.717C346.223 241.977 342.447 243.117 340.504 243.344Z" fill="#89C5CC"/>
<path fill-rule="evenodd" clip-rule="evenodd" d="M311.096 239.476C311.026 239.566 311.026 239.566 311.096 239.476V239.476ZM311.028 239.46C311.005 239.525 310.931 239.684 311.028 239.46V239.46ZM310.393 238.641C310.408 238.659 310.467 238.736 310.393 238.641V238.641ZM310.369 238.635C310.611 238.924 310.775 239.247 310.859 239.603C308.772 240.169 307.968 238.481 310.369 238.635ZM310.237 238.555C310.237 238.556 310.53 238.679 310.237 238.555V238.555ZM306.809 236.041C305.458 237.722 304.343 239.682 306.027 241.604C307.533 243.321 310.562 243.543 312.472 242.396C314.441 241.214 314.271 238.727 312.898 237.103C312.014 236.058 311.297 236.087 310.014 235.916C309.141 235.8 307.55 235.121 306.809 236.041Z" fill="#89C5CC"/>
<path fill-rule="evenodd" clip-rule="evenodd" d="M320.77 239.153C320.77 241.393 330.44 240.429 332.16 240.427C333.601 240.424 342.315 241.219 341.689 238.915C341.175 237.021 332.592 237.962 330.764 237.959C329.184 237.957 320.77 236.872 320.77 239.153Z" fill="#89C5CC"/>
</g>
<g opacity="0.5">
<path fill-rule="evenodd" clip-rule="evenodd" d="M194.526 260.136C199.369 260.84 204.406 263.117 204.364 268.754C204.328 273.494 200.353 278.538 195.249 278.255C190.655 278 186.33 272.977 185.755 268.672C185.456 266.442 186.014 264.04 187.326 262.206C189.045 259.802 191.773 259.805 194.526 260.136ZM192.238 257.072C188.735 257.091 186.173 258.359 184.005 261.033C183.227 261.992 182.323 263.024 181.731 264.111C181.178 265.125 181.275 267.706 183.172 266.496C182.705 271.492 185.625 276.34 189.822 278.9C194.384 281.683 199.541 281.14 203.338 277.24C206.813 273.67 208.037 267.639 205.494 263.224C202.953 258.811 197.064 257.025 192.238 257.072Z" fill="#89C5CC"/>
<path fill-rule="evenodd" clip-rule="evenodd" d="M202.742 255.733C200.499 257.377 198.452 259.541 196.751 261.737C195.088 263.882 193.989 266.561 191.993 268.432C190.984 267.334 189.803 264.367 187.791 265.544C186.122 266.521 187.197 268.2 188.01 269.303C190.109 272.151 192.44 273.297 195.133 270.483C197.578 267.928 198.967 264.52 201.253 261.818C202.256 260.632 203.806 259.456 204.604 258.147C205.328 256.96 204.433 254.491 202.742 255.733Z" fill="#89C5CC"/>
</g>
<g opacity="0.5">
<path fill-rule="evenodd" clip-rule="evenodd" d="M287.488 77.4961C287.492 77.7202 287.495 77.931 287.5 78.1247C287.604 82.3555 287.544 86.8032 287.2 91.024C287.081 92.4813 286.021 94.3285 284.812 92.3196C284.28 91.4363 284.355 89.6223 284.409 88.2879C284.424 87.9302 284.437 87.6069 284.437 87.3453C284.436 85.8564 284.514 84.3524 284.593 82.8442C284.746 79.8958 284.9 76.9319 284.464 74.0362C284.455 73.9776 284.447 73.9212 284.439 73.867C284.249 72.5936 284.236 72.5056 282.836 72.5345C282.252 72.5467 281.668 72.5624 281.084 72.5782C280.51 72.5937 279.936 72.6093 279.362 72.6213C278.792 72.6333 278.221 72.6442 277.651 72.6552C275.863 72.6896 274.075 72.724 272.287 72.7894C271.989 72.8005 271.432 72.8703 270.73 72.9584C269.326 73.1345 267.339 73.3837 265.667 73.3823C265.667 73.3895 265.668 73.3967 265.668 73.4039C265.669 73.4168 265.67 73.4297 265.67 73.4429C265.689 74.366 265.451 75.3965 265.213 76.4317C265.012 77.2987 264.812 78.169 264.76 78.9824C264.637 80.9179 264.636 82.8738 264.635 84.8298C264.633 87.2115 264.632 89.5932 264.411 91.938C264.4 92.0524 264.394 92.1732 264.387 92.2955C264.386 92.3117 264.385 92.328 264.385 92.3443C264.46 92.3328 264.534 92.3246 264.605 92.3201C265.81 92.2437 267.025 92.2369 268.239 92.2301C268.908 92.2263 269.577 92.2226 270.243 92.2072C271.439 92.1794 272.65 92.1807 273.865 92.182C276.549 92.1849 279.256 92.1878 281.881 91.8787C282.656 91.7782 282.927 92.7726 282.579 93.2881C282.268 93.7496 281.411 93.8243 280.783 93.8791C280.623 93.893 280.479 93.9056 280.361 93.9229C278.669 94.1736 276.953 94.2611 275.245 94.3368C273.451 94.4163 271.656 94.4757 269.86 94.5257C269.433 94.5375 268.863 94.5951 268.231 94.659C266.561 94.8277 264.46 95.0402 263.417 94.5681C262.296 94.0611 262.322 93.4981 262.779 93.0618C262.578 92.6206 262.547 91.9756 262.522 91.4712C262.513 91.2787 262.504 91.1067 262.488 90.9743C262.239 88.9663 262.089 86.984 262.085 84.9589C262.078 80.992 262.086 76.8721 263.184 73.0323C262.744 72.8399 262.479 72.5562 262.48 72.1473C262.485 70.0873 268.897 70.1921 271.945 70.2419C272.49 70.2508 272.927 70.258 273.201 70.2507C275.421 70.1927 277.642 70.1851 279.863 70.1971C280.332 70.1996 280.854 70.1689 281.395 70.1371C282.546 70.0695 283.782 69.9968 284.776 70.2278C287.388 70.834 287.451 74.9931 287.488 77.4961Z" fill="#89C5CC"/>
<path fill-rule="evenodd" clip-rule="evenodd" d="M303.822 70.6794C306.246 70.5511 308.672 70.5216 311.1 70.5126C313.67 70.4997 316.244 70.5459 318.813 70.6249L318.873 70.6267C320.011 70.6609 326.339 70.8509 323.432 72.4277C323.262 72.5197 323.071 72.5966 322.863 72.6604C322.986 73.3905 323.001 74.1443 322.981 74.5074C322.906 75.8845 322.857 77.2631 322.807 78.6417L322.807 78.642L322.807 78.6424C322.773 79.5766 322.74 80.5107 322.698 81.4444C322.584 84.0246 322.475 86.6047 322.386 89.1861C322.375 89.503 322.392 89.9174 322.411 90.3793V90.3793C322.473 91.9065 322.555 93.9527 321.726 94.7091C320.998 95.3733 320.501 95.2402 320.166 94.7891C318.083 95.3939 313.806 95.1973 311.655 95.0984C311.137 95.0746 310.742 95.0564 310.531 95.0565C310.154 95.0567 309.453 95.1037 308.569 95.1631C304.886 95.4105 298.011 95.8723 297.997 94.0567C297.995 93.8819 298.052 93.7253 298.159 93.5851C297.867 93.2873 297.605 92.8502 297.436 92.3048C296.831 90.3466 296.774 88.2335 296.729 86.2029C296.666 83.3356 296.665 80.4649 296.664 77.5949C296.664 76.1209 296.664 74.6471 296.655 73.174C296.261 72.6452 296.495 72.0405 296.986 71.6186C298.032 70.721 300.628 70.7101 302.506 70.7023C303.011 70.7002 303.464 70.6983 303.822 70.6794ZM299.876 92.7887C302.213 92.2898 306.151 92.4504 308.26 92.5365C308.813 92.559 309.24 92.5764 309.48 92.5755C311.635 92.567 313.79 92.597 315.943 92.6831C316.166 92.692 316.496 92.6836 316.885 92.6738C317.667 92.6541 318.686 92.6284 319.552 92.7244C319.54 92.607 319.532 92.4998 319.528 92.4071C319.431 90.4908 319.501 88.5579 319.57 86.6357L319.57 86.6354C319.585 86.2269 319.6 85.8189 319.613 85.4117C319.659 83.9746 319.721 82.5381 319.782 81.1017L319.782 81.1016C319.821 80.197 319.859 79.2925 319.894 78.3877C319.909 77.9908 319.887 77.4517 319.861 76.8451C319.809 75.611 319.745 74.0979 319.966 72.9358C319.169 72.9207 318.352 72.8642 317.603 72.8124L317.603 72.8124C316.881 72.7624 316.222 72.7169 315.704 72.7168C315.047 72.7167 314.39 72.7147 313.733 72.7127H313.733H313.733C311.912 72.7071 310.092 72.7015 308.272 72.7375L307.753 72.7476C305.246 72.796 302.719 72.8447 300.233 73.175C300.087 73.1944 299.912 73.2317 299.719 73.277C299.991 74.416 299.858 76.0212 299.741 77.427C299.684 78.1099 299.631 78.7457 299.631 79.2582C299.627 82.4453 299.711 85.6198 299.795 88.7912L299.795 88.7913L299.795 88.7914C299.827 89.9911 299.859 91.1902 299.886 92.3895C299.889 92.5326 299.886 92.6656 299.876 92.7887Z" fill="#89C5CC"/>
<path fill-rule="evenodd" clip-rule="evenodd" d="M273.279 94.4335C271.686 95.3642 272.545 99.0875 273.097 100.375C274.005 102.493 275.846 104.149 277.832 105.249C281.848 107.47 287.637 106.88 290.674 110.731C290.705 110.771 291.755 111.81 291.994 110.465C292.19 109.36 290.23 107.673 289.471 107.12C287.311 105.545 284.542 105.038 282.044 104.251C279.38 103.412 276.456 101.866 275.34 99.1198C274.944 98.1471 275.698 93.0136 273.279 94.4335Z" fill="#C1DEE2"/>
<path fill-rule="evenodd" clip-rule="evenodd" d="M309.703 96.2235C308.243 96.626 309.209 98.6352 309.206 99.6411C309.203 100.896 308.802 102.21 308.029 103.211C306.067 105.751 302.227 106.132 299.347 106.86C297.256 107.389 292.254 108.524 292.058 111.351C291.839 114.509 296.256 110.666 296.629 110.509C300.757 108.994 306.097 108.702 309.283 105.369C310.598 103.993 311.376 102.157 311.499 100.262C311.569 99.1947 311.58 95.7106 309.703 96.2235Z" fill="#C1DEE2"/>
<path fill-rule="evenodd" clip-rule="evenodd" d="M279.534 124.233C279.5 118.39 285.092 114.856 290.148 113.527C296.225 111.926 301.886 116.184 302.602 122.309C303.358 128.774 298.486 133.978 292.061 134.263C286.409 134.514 279.57 130.467 279.534 124.233ZM293.11 116.336C293.438 116.783 293.735 117.496 293.073 117.884C292.436 118.255 292.118 117.809 291.797 117.36C291.595 117.076 291.392 116.791 291.107 116.711C290.368 116.503 289.181 117.28 288.566 117.733C288.316 117.917 287.96 118.313 287.545 118.776C286.222 120.249 284.291 122.4 283.224 120.549C278.967 127.9 289.58 133.401 295.615 130.619C302.243 127.564 300.953 116.394 293.11 116.336Z" fill="#89C5CC"/>
<path fill-rule="evenodd" clip-rule="evenodd" d="M287.547 122.277C287.547 123.618 289.665 123.618 289.665 122.277C289.665 120.951 287.547 120.894 287.547 122.277Z" fill="#89C5CC"/>
<path fill-rule="evenodd" clip-rule="evenodd" d="M291.273 122.025C291.273 123.668 293.868 123.668 293.868 122.025C293.868 120.401 291.273 120.332 291.273 122.025Z" fill="#89C5CC"/>
<path fill-rule="evenodd" clip-rule="evenodd" d="M288.606 125.853C286.484 127.102 292.553 129.582 292.793 127.047C292.897 125.954 291.837 126.249 291.131 126.168C290.456 126.091 289.247 125.48 288.606 125.853Z" fill="#89C5CC"/>
<path fill-rule="evenodd" clip-rule="evenodd" d="M287.686 134.71C287.778 137.899 287.734 141.086 288.339 144.23C288.454 144.827 288.533 146.993 289.005 147.437C290.166 148.528 290.185 146.437 290.231 145.635C290.392 142.764 290.09 139.804 290.024 136.927C290.009 136.307 290.173 135.025 289.881 134.425C289.417 133.474 287.641 133.191 287.686 134.71Z" fill="#C1DEE2"/>
<path fill-rule="evenodd" clip-rule="evenodd" d="M285.416 132.125C280.763 137.347 274.355 136.963 267.9 137.42C264.49 137.662 261.041 138.158 258.297 140.364C257.02 141.39 255.92 142.675 255.18 144.14C254.857 144.781 253.324 148.476 255.627 147.599C256.443 147.288 257.247 144.845 257.776 144.122C258.782 142.745 260.069 141.609 261.613 140.87C264.592 139.445 268.149 139.469 271.379 139.288C274.755 139.1 278.379 138.923 281.483 137.455C282.943 136.764 284.312 135.903 285.487 134.793C285.907 134.396 286.807 133.722 286.874 133.115C286.951 132.421 286.285 131.152 285.416 132.125Z" fill="#C1DEE2"/>
<path fill-rule="evenodd" clip-rule="evenodd" d="M261.927 148.154C257.556 148.3 253.191 148.477 248.826 148.753C247.932 148.81 244.949 148.629 245.709 150.462C246.318 151.931 249.955 150.959 251.158 150.888C255.706 150.618 260.273 150.524 264.811 150.115C265.831 150.023 270.439 150.06 268.536 148.253C267.631 147.393 263.177 148.111 261.927 148.154Z" fill="#89C5CC"/>
<path fill-rule="evenodd" clip-rule="evenodd" d="M242.934 150.262C241.556 152.071 242.189 156.469 242.293 158.644C242.394 160.752 241.984 164.606 244.736 164.933C243.862 164.819 245.399 164.986 245.649 165C246.208 165.03 246.769 165.039 247.329 165.045C248.621 165.06 249.914 165.042 251.206 165.016C254.133 164.958 257.067 164.873 259.99 164.711C261.219 164.643 267.885 164.7 268.149 163.423C268.486 161.792 262.095 162.715 260.951 162.767C258.165 162.895 255.374 162.922 252.585 162.958C251.203 162.976 249.819 162.99 248.437 162.963C247.866 162.952 245.606 163.186 245.259 162.805C244.963 162.481 245.194 159.501 245.188 159.045C245.167 157.559 245.169 156.069 245.222 154.584C245.258 153.584 245.798 151.681 245.358 150.742C244.929 149.828 243.68 149.517 242.934 150.262Z" fill="#89C5CC"/>
<path fill-rule="evenodd" clip-rule="evenodd" d="M265.439 150.347C265.519 153.657 265.544 157.034 266.325 160.271C266.586 161.348 266.95 163.57 268.033 164.128C269.169 164.713 270.149 163.878 270.224 162.752C270.317 161.337 269.559 159.479 269.404 158.027C269.222 156.333 269.117 154.637 269.055 152.935C269.008 151.655 269.397 149.735 268.176 148.91C267.08 148.168 265.403 148.915 265.439 150.347Z" fill="#89C5CC"/>
<path fill-rule="evenodd" clip-rule="evenodd" d="M274.137 149.538C272.778 150.892 273.386 155.179 273.556 156.919C273.68 158.194 275.075 164.462 277.165 161.193C278.089 159.747 276.915 155.924 276.923 154.238C276.928 153.164 277.308 151.806 277.125 150.774C276.883 149.411 275.37 148.307 274.137 149.538Z" fill="#89C5CC"/>
<path fill-rule="evenodd" clip-rule="evenodd" d="M283.549 148.421C287.632 147.999 291.719 147.683 295.825 147.644C296.022 147.643 296.229 147.64 296.445 147.637C299.258 147.602 303.487 147.548 305.38 149.661C306.412 150.812 306.88 152.591 307.287 154.143C307.363 154.432 307.437 154.713 307.512 154.981C307.576 155.21 307.659 155.471 307.75 155.753C308.175 157.085 308.75 158.887 308.167 160.002C307.847 160.614 307.332 161.136 306.55 160.919C306.368 160.869 306.226 160.804 306.114 160.729C306.413 161.053 306.545 161.514 306.35 161.965C305.974 162.838 304.786 162.857 303.85 162.871C303.623 162.875 303.411 162.878 303.229 162.893C300.112 163.153 296.98 163.326 293.852 163.354C292.363 163.367 290.873 163.355 289.383 163.343C287.85 163.33 286.317 163.317 284.784 163.333C283.671 163.343 282.537 163.449 281.404 163.555C279.972 163.689 278.54 163.822 277.148 163.765C276.107 163.722 274.995 163.381 275.259 162.035C275.474 160.937 276.508 160.841 277.435 160.755C277.516 160.747 277.595 160.74 277.674 160.732C280.625 160.432 283.578 160.325 286.544 160.336C292.775 160.357 299.001 160.325 305.232 160.293C305.487 160.314 305.728 160.411 305.926 160.559C305.703 160.287 305.707 159.925 305.712 159.54C305.714 159.365 305.716 159.186 305.697 159.008C305.659 158.649 305.624 158.293 305.589 157.937C305.474 156.761 305.36 155.593 305.136 154.41C305.102 154.231 305.069 154.035 305.035 153.827C304.831 152.598 304.56 150.97 303.584 150.307C302.601 149.64 300.676 149.672 299.175 149.697C298.77 149.704 298.395 149.71 298.079 149.702C294.074 149.599 290.046 149.883 286.059 150.246C285.753 150.273 285.446 150.3 285.139 150.327C283.623 150.459 282.098 150.592 280.603 150.863C280.33 150.913 279.912 151.059 279.432 151.226C278.157 151.671 276.447 152.268 275.866 151.611C273.941 149.433 282.4 148.539 283.549 148.421Z" fill="#89C5CC"/>
<path fill-rule="evenodd" clip-rule="evenodd" d="M326.988 143.464C327.165 143.691 327.165 143.691 326.988 143.464V143.464ZM299.358 129.975C296.878 131.433 301.468 135.71 302.637 136.371C305.268 137.86 308.883 138.084 311.821 138.503C315.539 139.033 319.585 139.228 323.158 140.446C324.681 140.966 325.648 141.776 326.645 143.021C327.15 143.651 328.367 146.371 329.474 145.727C331.704 144.431 325.695 138.991 324.371 138.406C321.361 137.076 317.803 136.704 314.585 136.187C311.592 135.707 308.535 135.35 305.616 134.503C304.011 134.038 302.871 133.287 301.946 131.85C301.369 130.954 300.896 129.075 299.358 129.975Z" fill="#C1DEE2"/>
<path fill-rule="evenodd" clip-rule="evenodd" d="M337.373 146.683C334.514 146.746 331.66 146.966 328.807 147.186C327.207 147.309 325.607 147.433 324.006 147.528C323.505 147.558 323.004 147.585 322.502 147.612L322.502 147.612C321.092 147.688 319.679 147.764 318.276 147.906C318.063 147.928 317.816 147.948 317.546 147.97C316.354 148.068 314.729 148.201 313.69 148.636C312.738 147.916 311.268 148.528 311.245 149.812C311.206 152.151 311.228 154.447 311.513 156.772C311.579 157.311 311.92 160.042 312.662 161.464C312.398 162.807 313.542 163.183 314.608 163.286C318.734 163.685 323.061 163.375 327.33 163.071C329.501 162.915 331.657 162.761 333.763 162.702C334.464 162.682 335.174 162.674 335.887 162.666C338.216 162.64 340.591 162.614 342.846 162.173C342.936 162.155 343.034 162.138 343.135 162.12C344.027 161.96 345.256 161.739 345.35 160.758C345.406 160.169 345.074 159.63 344.518 159.555C344.556 159.064 344.494 158.529 344.449 158.135C344.439 158.043 344.429 157.96 344.422 157.886C344.286 156.521 343.947 155.165 343.611 153.827L343.611 153.827C343.535 153.526 343.46 153.226 343.388 152.927C343.307 152.596 343.233 152.202 343.152 151.777C342.869 150.278 342.513 148.395 341.565 147.52C340.571 146.603 338.954 146.643 337.658 146.676C337.561 146.678 337.466 146.681 337.373 146.683ZM342.404 159.701C342.065 158.814 341.966 157.614 341.871 156.473C341.812 155.757 341.755 155.064 341.642 154.488C341.556 154.054 341.487 153.598 341.416 153.134L341.416 153.133C341.243 152.006 341.064 150.835 340.641 149.847C340.075 148.524 339.57 148.575 338.377 148.694C338.155 148.717 337.909 148.741 337.635 148.76C336.419 148.842 335.204 148.948 333.989 149.053C333.407 149.103 332.824 149.154 332.241 149.202C329.747 149.407 327.251 149.564 324.755 149.722L324.755 149.722C323.297 149.814 321.839 149.906 320.38 150.008C319.236 150.087 318.119 150.305 317.007 150.521L317.007 150.521C316.126 150.693 315.248 150.864 314.361 150.966C314.348 151.269 314.323 151.573 314.299 151.863C314.266 152.257 314.235 152.625 314.241 152.926C314.27 154.262 314.388 155.59 314.506 156.919L314.506 156.919C314.525 157.123 314.543 157.328 314.561 157.532C314.582 157.777 314.635 158.092 314.693 158.442C314.784 158.982 314.888 159.605 314.911 160.178C315.019 160.177 315.126 160.178 315.232 160.178C315.369 160.179 315.502 160.179 315.631 160.177C318.774 160.122 321.914 160.027 325.055 159.906C325.456 159.891 325.856 159.875 326.257 159.859C329.059 159.75 331.862 159.641 334.666 159.609C335.78 159.596 336.909 159.631 338.041 159.666C339.498 159.711 340.96 159.757 342.404 159.701Z" fill="#89C5CC"/>
</g>
<path fill-rule="evenodd" clip-rule="evenodd" d="M190.592 161.546C194.556 163.935 198.451 165.089 200.28 164.618C204.864 163.437 205.286 146.671 201.738 140.061C198.191 133.452 179.954 130.571 179.035 143.667C178.716 148.212 180.625 152.268 183.446 155.578L178.388 179.143H193.08L190.592 161.546Z" fill="#B28B67"/>
<path fill-rule="evenodd" clip-rule="evenodd" d="M199.303 132.804C202.404 133.178 204.958 133.486 206.075 132.775C206.872 137.771 204.301 141.799 195.259 141.02C193.265 142.135 191.846 144.224 190.138 146.964C189.722 146.8 189.269 146.711 188.795 146.711C186.767 146.711 185.122 148.354 185.122 150.382C185.122 151.412 185.546 152.342 186.228 153.009C185.379 154.208 184.426 155.461 183.335 156.753C179.261 154.31 176.232 147.191 180.121 140.319C182.442 130.768 192.278 131.956 199.303 132.804Z" fill="#191847"/>
<path fill-rule="evenodd" clip-rule="evenodd" d="M177.751 232.422L207.798 308.44L227.95 372.708H235.908L205.099 232.422L177.751 232.422Z" fill="#997659"/>
<path fill-rule="evenodd" clip-rule="evenodd" d="M171.701 232.422C171.381 259.136 166.715 295.101 165.969 296.766C165.224 298.431 114.498 339.117 114.498 339.117L119.979 344.98C119.979 344.98 179.831 310.097 182.6 305.444C185.37 300.792 194.387 257.978 201.626 232.422H171.701Z" fill="#B28B67"/>
<path fill-rule="evenodd" clip-rule="evenodd" d="M115.365 337.969C115.174 337.308 114.478 336.915 113.832 337.15C112.603 337.596 110.768 338.333 109.961 339.01C108.692 340.074 106.613 342.538 106.613 342.538C107.848 344.009 128.808 368.977 128.808 368.977C128.808 368.977 133.081 367.149 131.489 364.7C129.897 362.252 128.883 360.6 128.883 360.6L124.041 343.69C123.95 343.372 123.614 343.191 123.299 343.291L120.695 344.117C120.695 344.117 118.01 342.866 116.931 341.581C116.264 340.787 115.699 339.124 115.365 337.969Z" fill="#E4E4E4"/>
<path fill-rule="evenodd" clip-rule="evenodd" d="M226.34 369.035C225.711 368.757 224.963 369.036 224.727 369.683C224.28 370.911 223.665 372.79 223.665 373.843C223.665 375.498 224.217 378.674 224.217 378.674C226.138 378.674 258.745 378.674 258.745 378.674C258.745 378.674 260.091 374.226 257.191 373.871C254.291 373.517 252.373 373.231 252.373 373.231L236.302 366.069C235.999 365.934 235.646 366.076 235.519 366.382L234.478 368.906C234.478 368.906 231.794 370.158 230.115 370.158C229.078 370.158 227.44 369.522 226.34 369.035Z" fill="#E4E4E4"/>
<path fill-rule="evenodd" clip-rule="evenodd" d="M197.953 366.088L235.789 361.983L207.748 232.422H173.86L197.953 366.088Z" fill="#69A1AC"/>
<path fill-rule="evenodd" clip-rule="evenodd" d="M122.324 329.658L147.142 359.022C147.142 359.022 186.352 316.215 192.861 303.159C199.371 290.103 204.564 232.422 204.564 232.422H166.412C166.412 232.422 163.575 283.167 162.588 285.528C161.6 287.89 122.324 329.658 122.324 329.658Z" fill="#89C5CC"/>
<path fill-rule="evenodd" clip-rule="evenodd" d="M133.858 261.177C135.719 257.427 145.019 209.164 145.019 209.164L158.926 209.216C158.926 209.216 143.038 260.341 142.058 262.753C140.785 265.885 142.947 270.437 144.413 273.523C144.64 274 144.85 274.443 145.028 274.839C142.994 275.743 142.017 274.651 140.987 273.499C139.823 272.198 138.592 270.821 135.694 272.16C134.574 272.677 133.514 273.289 132.479 273.887C128.904 275.951 125.619 277.847 121.15 275.109C120.441 274.675 119.665 273.04 121.541 271.763C126.214 268.58 132.948 263.011 133.858 261.177ZM250.991 242.372L232.999 224.94L227.024 235.209L245.733 246.164C250.424 253.504 253.179 256.675 253.999 255.678C254.689 254.837 254.373 253.916 254.081 253.067C253.854 252.406 253.642 251.789 253.933 251.289C254.598 250.146 258.354 250.8 261.892 251.573C265.43 252.345 264.611 250.619 263.859 249.718C260.516 247.038 256.226 244.59 250.991 242.372Z" fill="#B28B67"/>
<path fill-rule="evenodd" clip-rule="evenodd" d="M187.398 169.981L192.89 169.046C201.542 199.419 245.994 220.123 248.723 231.477C249.723 235.641 246.706 237.746 248.265 239.014L241.126 244.204C239.917 242.803 237.337 245.366 231.95 243.573C226.563 241.781 187.398 205.946 187.398 169.981Z" fill="#DB2721"/>
<path fill-rule="evenodd" clip-rule="evenodd" d="M177.44 163.627C176.145 163.537 175.022 164.514 174.931 165.808L174.658 169.676C164.322 177.575 138.705 201.181 132.03 245.123C131.329 249.739 132.597 252.212 133.61 254.187C134.303 255.538 134.877 256.657 134.62 258.071L143.962 260.632C143.962 259.588 145.14 258.794 146.659 257.77C148.868 256.281 151.799 254.305 152.882 250.365C153.91 246.631 155.414 241.968 157.211 236.78C157.381 243.651 158.693 249.97 161.551 255.204C168.682 268.261 209.89 253.941 214.196 240.62C216.493 233.512 213.233 227.544 208.922 219.651C203.449 209.633 196.283 196.512 196.636 174.021L197.106 167.348C197.197 166.054 196.222 164.931 194.927 164.841L177.44 163.627Z" fill="#FF4133"/>
</svg>
