<svg width="51" height="50" viewBox="0 0 51 50" fill="none" xmlns="http://www.w3.org/2000/svg">
<rect x="0.0917969" width="50" height="50" rx="25" fill="#F26950" fill-opacity="0.15"/>
<path d="M33.4252 34.375V32.2917C33.4252 31.1866 32.9862 30.1268 32.2048 29.3454C31.4234 28.564 30.3636 28.125 29.2585 28.125H20.9252C19.8201 28.125 18.7603 28.564 17.9789 29.3454C17.1975 30.1268 16.7585 31.1866 16.7585 32.2917V34.375" fill="#F26950" fill-opacity="0.2"/>
<path d="M33.4252 34.375V32.2917C33.4252 31.1866 32.9862 30.1268 32.2048 29.3454C31.4234 28.564 30.3636 28.125 29.2585 28.125H20.9252C19.8201 28.125 18.7603 28.564 17.9789 29.3454C17.1975 30.1268 16.7585 31.1866 16.7585 32.2917V34.375" stroke="#F26950" stroke-width="2" stroke-linecap="round" stroke-linejoin="round"/>
<path d="M25.0917 23.9583C27.3929 23.9583 29.2584 22.0929 29.2584 19.7917C29.2584 17.4905 27.3929 15.625 25.0917 15.625C22.7905 15.625 20.925 17.4905 20.925 19.7917C20.925 22.0929 22.7905 23.9583 25.0917 23.9583Z" fill="#F26950" fill-opacity="0.2" stroke="#F26950" stroke-width="2" stroke-linecap="round" stroke-linejoin="round"/>
</svg>
