<svg width="25" height="25" viewBox="0 0 25 25" fill="none" xmlns="http://www.w3.org/2000/svg">
<g clip-path="url(#clip0)">
<path d="M6.94153 11.1021L12.1168 5.24731L17.5532 11.1021L23.1988 8.38383L19.6964 19.8842H4.5891L1.24365 8.38383L6.94153 11.1021Z" fill="#A46CEB" fill-opacity="0.2"/>
<path d="M23.8268 7.50369C23.5433 7.26167 23.1432 7.21067 22.8079 7.37389L17.6777 9.87139L12.864 4.3213C12.686 4.11598 12.4276 3.99805 12.1558 3.99805C11.884 3.99805 11.6256 4.11598 11.4475 4.3213L6.63385 9.87134L1.50366 7.37384C1.16837 7.21067 0.768335 7.26162 0.484741 7.50364C0.201147 7.74566 0.087897 8.13275 0.196319 8.48947L3.75882 20.2082C3.87887 20.6031 4.24304 20.873 4.65577 20.873H19.6558C20.0685 20.873 20.4327 20.6031 20.5527 20.2083L24.1152 8.48952C24.2236 8.1328 24.1104 7.7457 23.8268 7.50369ZM18.9609 18.998H5.3506L2.6154 10.0005L6.46018 11.8723C6.84193 12.0581 7.30065 11.9642 7.57876 11.6436L12.1558 6.36641L16.7328 11.6436C17.0109 11.9643 17.4698 12.058 17.8514 11.8723L21.6961 10.0005L18.9609 18.998Z" fill="#A46CEB"/>
</g>
<defs>
<clipPath id="clip0">
<rect width="24" height="24" fill="white" transform="translate(0.155762 0.435547)"/>
</clipPath>
</defs>
</svg>
