<svg width="25" height="25" viewBox="0 0 25 25" fill="none" xmlns="http://www.w3.org/2000/svg">
<g clip-path="url(#clip0)">
<path d="M10.4918 4.76566C11.1801 4.60454 11.8849 4.524 12.5918 4.52566C19.5918 4.52566 23.5918 12.5257 23.5918 12.5257C22.9848 13.6613 22.2609 14.7304 21.4318 15.7157M14.7118 14.6457C14.4371 14.9404 14.1059 15.1768 13.7379 15.3408C13.37 15.5048 12.9727 15.5929 12.5699 15.6C12.1671 15.6071 11.767 15.533 11.3934 15.3822C11.0199 15.2313 10.6805 15.0067 10.3956 14.7218C10.1108 14.4369 9.88619 14.0976 9.73531 13.724C9.58442 13.3505 9.51032 12.9504 9.51743 12.5476C9.52454 12.1448 9.61271 11.7475 9.77667 11.3795C9.94064 11.0115 10.177 10.6803 10.4718 10.4057M18.5318 18.4657C16.8224 19.7687 14.7409 20.4905 12.5918 20.5257C5.5918 20.5257 1.5918 12.5257 1.5918 12.5257C2.83569 10.2076 4.56093 8.18227 6.6518 6.58566L18.5318 18.4657Z" stroke="#303030" stroke-opacity="0.4" stroke-width="2" stroke-linecap="round" stroke-linejoin="round"/>
<path d="M1.5918 1.52563L23.5918 23.5256" stroke="#303030" stroke-opacity="0.4" stroke-width="2" stroke-linecap="round" stroke-linejoin="round"/>
</g>
<defs>
<clipPath id="clip0">
<rect width="24" height="24" fill="white" transform="translate(0.591797 0.525635)"/>
</clipPath>
</defs>
</svg>
