<svg width="25" height="25" viewBox="0 0 25 25" fill="none" xmlns="http://www.w3.org/2000/svg">
<path d="M12.6107 13.9061C13.1629 13.9061 13.6107 13.4584 13.6107 12.9061C13.6107 12.3538 13.1629 11.9061 12.6107 11.9061C12.0584 11.9061 11.6107 12.3538 11.6107 12.9061C11.6107 13.4584 12.0584 13.9061 12.6107 13.9061Z" stroke="black" stroke-opacity="0.45" stroke-width="2" stroke-linecap="round" stroke-linejoin="round"/>
<path d="M19.6107 13.9061C20.1629 13.9061 20.6107 13.4584 20.6107 12.9061C20.6107 12.3538 20.1629 11.9061 19.6107 11.9061C19.0584 11.9061 18.6107 12.3538 18.6107 12.9061C18.6107 13.4584 19.0584 13.9061 19.6107 13.9061Z" stroke="black" stroke-opacity="0.45" stroke-width="2" stroke-linecap="round" stroke-linejoin="round"/>
<path d="M5.61066 13.9061C6.16294 13.9061 6.61066 13.4584 6.61066 12.9061C6.61066 12.3538 6.16294 11.9061 5.61066 11.9061C5.05837 11.9061 4.61066 12.3538 4.61066 12.9061C4.61066 13.4584 5.05837 13.9061 5.61066 13.9061Z" stroke="black" stroke-opacity="0.45" stroke-width="2" stroke-linecap="round" stroke-linejoin="round"/>
</svg>
