<svg width="21" height="22" viewBox="0 0 21 22" fill="none" xmlns="http://www.w3.org/2000/svg">
<path d="M16.1036 7.00177C16.1036 5.41047 15.4715 3.88435 14.3463 2.75913C13.2211 1.63391 11.6949 1.00177 10.1036 1.00177C8.51234 1.00177 6.98622 1.63391 5.861 2.75913C4.73578 3.88435 4.10364 5.41047 4.10364 7.00177C4.10364 14.0018 1.10364 16.0018 1.10364 16.0018L19.1036 16.0018C19.1036 16.0018 16.1036 14.0018 16.1036 7.00177Z" stroke="#303030" stroke-opacity="0.8" stroke-width="2" stroke-linecap="round" stroke-linejoin="round"/>
<path d="M11.8337 20.0018C11.6578 20.3048 11.4055 20.5564 11.1019 20.7313C10.7983 20.9062 10.454 20.9982 10.1037 20.9982C9.75328 20.9982 9.40905 20.9062 9.10543 20.7313C8.80181 20.5564 8.54947 20.3048 8.37366 20.0018" stroke="#303030" stroke-opacity="0.8" stroke-width="2" stroke-linecap="round" stroke-linejoin="round"/>
</svg>
