<svg width="25" height="25" viewBox="0 0 25 25" fill="none" xmlns="http://www.w3.org/2000/svg">
<path d="M20.938 21.75V19.75C20.938 18.6891 20.5166 17.6717 19.7664 16.9216C19.0163 16.1714 17.9989 15.75 16.938 15.75H8.93799C7.87712 15.75 6.85971 16.1714 6.10956 16.9216C5.35942 17.6717 4.93799 18.6891 4.93799 19.75V21.75" fill="#3DAE99" fill-opacity="0.1"/>
<path d="M20.938 21.75V19.75C20.938 18.6891 20.5166 17.6717 19.7664 16.9216C19.0163 16.1714 17.9989 15.75 16.938 15.75H8.93799C7.87712 15.75 6.85971 16.1714 6.10956 16.9216C5.35942 17.6717 4.93799 18.6891 4.93799 19.75V21.75" stroke="#3DAE99" stroke-width="2" stroke-linecap="round" stroke-linejoin="round"/>
<path d="M12.938 11.75C15.1471 11.75 16.938 9.95914 16.938 7.75C16.938 5.54086 15.1471 3.75 12.938 3.75C10.7288 3.75 8.93799 5.54086 8.93799 7.75C8.93799 9.95914 10.7288 11.75 12.938 11.75Z" fill="#3DAE99" fill-opacity="0.1" stroke="#3DAE99" stroke-width="2" stroke-linecap="round" stroke-linejoin="round"/>
</svg>
